<svg width="40" height="40" viewBox="0 0 40 40" fill="none" xmlns="http://www.w3.org/2000/svg">
<rect width="40" height="40" rx="4" fill="#151515"/>
<path d="M20 10C14.4859 10 10 14.4859 10 20C10 25.5141 14.4859 30 20 30C25.5141 30 30 25.5141 30 20C30 14.4859 25.5141 10 20 10ZM20 28.5437C15.2891 28.5437 11.4563 24.7109 11.4563 20C11.4563 15.2891 15.2891 11.4563 20 11.4563C24.7109 11.4563 28.5437 15.2891 28.5437 20C28.5437 24.7109 24.7109 28.5437 20 28.5437Z" fill="white"/>
<path d="M25.8684 13.1251L13.1012 25.8923L14.1308 26.9219L26.898 14.1547L25.8684 13.1251Z" fill="white"/>
</svg>
