<svg width="40" height="40" viewBox="0 0 40 40" fill="none" xmlns="http://www.w3.org/2000/svg">
<rect width="40" height="40" rx="4" fill="#151515"/>
<path d="M29.9961 14.9324C29.9727 14.7173 29.8391 14.5269 29.6393 14.4336L20.2643 10.0586C20.0967 9.98046 19.9032 9.98046 19.7357 10.0586L10.3607 14.4336C10.1609 14.5269 10.0272 14.7172 10.0038 14.9324C10.0033 14.9369 10 14.9967 10 15V25.625C10 25.8805 10.1556 26.1104 10.3929 26.2053L19.7679 29.9553C19.8424 29.9851 19.9212 30 20 30C20.0788 30 20.1576 29.9851 20.2321 29.9553L29.6071 26.2053C29.8444 26.1104 30 25.8805 30 25.625V15C30 14.9967 29.9966 14.9368 29.9961 14.9324ZM20 11.3147L27.8025 14.9559L24.7981 16.1576L16.8487 12.7853L20 11.3147ZM15.3246 13.4966L23.1506 16.8166L20 18.0768L12.1975 14.9559L15.3246 13.4966ZM11.25 15.9231L19.375 19.1731V28.4518L11.25 25.2018V15.9231ZM20.625 28.4519V19.1731L28.75 15.9231V25.2018L20.625 28.4519Z" fill="white"/>
</svg>
