<svg width="40" height="40" viewBox="0 0 40 40" fill="none" xmlns="http://www.w3.org/2000/svg">
<rect width="40" height="40" rx="4" fill="#151515"/>
<path d="M25.1432 28.1257C25.035 27.9392 24.796 27.8757 24.6093 27.9839L24.5943 27.9926C24.4077 28.1008 24.3442 28.3398 24.4524 28.5264C24.5249 28.6513 24.6559 28.7211 24.7906 28.7211C24.8571 28.7211 24.9246 28.704 24.9863 28.6682L25.0013 28.6596C25.1879 28.5513 25.2514 28.3123 25.1432 28.1257Z" fill="white"/>
<path d="M28.66 15.0031C27.3247 12.6904 25.1688 11.0361 22.5894 10.345C20.01 9.65379 17.3158 10.0085 15.0031 11.3437C12.6904 12.6789 11.0361 14.8349 10.3449 17.4143C9.65381 19.9937 10.0085 22.688 11.3437 25.0006C12.5414 27.0751 14.445 28.6518 16.7038 29.44C17.7746 29.8136 18.8924 30 20.0084 30C21.2219 30 22.4332 29.7795 23.5782 29.3394C23.7795 29.262 23.88 29.0361 23.8026 28.8347C23.7252 28.6333 23.4991 28.5327 23.2978 28.6103C20.2502 29.7816 16.9509 29.2494 14.4859 27.3992L14.8359 25.5724L15.0045 25.5176C15.6417 25.3106 15.9917 24.6237 15.7848 23.9865L15.661 23.6056C15.6324 23.5175 15.6325 23.4244 15.6614 23.3363C15.77 23.0054 15.7312 22.6433 15.555 22.3428C15.3788 22.0424 15.0817 21.8317 14.7398 21.7649L13.8582 21.5926L12.1571 20.2993C12.0552 20.2218 11.9218 20.1991 11.8 20.2387L10.8041 20.5622C10.7829 20.206 10.7826 19.8499 10.8027 19.4957C10.842 19.5323 10.8676 19.5571 10.8833 19.5735C10.9028 19.6059 10.9269 19.6357 10.9552 19.6615C11.0366 19.7355 11.1102 19.7691 11.2649 19.7691C11.4071 19.7691 11.6175 19.7408 11.965 19.6895C12.2945 19.6407 12.6223 19.5859 12.6255 19.5853C12.7569 19.5633 12.868 19.4758 12.9202 19.3534C12.9725 19.2309 12.9587 19.0902 12.8837 18.9801L12.4047 18.2776L13.0907 17.7871C13.1364 17.7544 13.1746 17.7122 13.2025 17.6635L14.2659 15.807L14.6945 15.3477C15.1325 14.8783 15.2575 14.1914 15.0129 13.5978C14.8686 13.2477 14.6166 12.9562 14.3014 12.7598C14.6428 12.4914 15.0068 12.2436 15.3937 12.0202C16.8131 11.2007 18.3622 10.8036 19.895 10.7884L19.1975 11.6633L16.6109 12.5701C16.5059 12.6069 16.4215 12.6868 16.3791 12.7897L15.6568 14.5408C15.6055 14.6652 15.6218 14.8072 15.6999 14.9167L16.7549 16.3945C16.6038 16.5324 16.4568 16.7332 16.2811 16.9825C16.2041 17.0918 16.1313 17.195 16.0811 17.2529C16.0374 17.3033 15.9936 17.3525 15.9502 17.4013C15.7233 17.6566 15.4887 17.9206 15.322 18.2732C14.9556 19.049 15.0296 19.9506 15.5152 20.6263C15.9848 21.2797 16.7589 21.6118 17.5852 21.5146C17.7198 21.4988 17.8453 21.4677 17.9667 21.4377C18.3016 21.3548 18.4077 21.3465 18.5151 21.4471C18.5674 21.496 18.5722 21.5053 18.5712 21.6713C18.5704 21.7769 18.5696 21.9083 18.606 22.0583C18.6643 22.2984 18.8151 22.4643 18.9362 22.5976C18.9963 22.6638 19.0586 22.7323 19.0778 22.7783C19.1996 23.0702 19.1466 23.2319 19.0303 23.5862C19.0204 23.6165 19.0102 23.6474 19 23.6792C18.8234 24.2258 19.0696 24.7681 19.2868 25.2465C19.3573 25.4018 19.4239 25.5485 19.4676 25.6781C19.8188 26.7202 20.0821 26.9589 20.2933 27.055C20.404 27.1053 20.5185 27.1274 20.6342 27.1273C21.1973 27.1273 21.7849 26.6045 22.0548 26.273C22.2244 26.0649 22.2661 25.8565 22.2966 25.7043C22.3118 25.6286 22.3237 25.5688 22.3466 25.5297C22.3815 25.47 22.4226 25.4237 22.4747 25.365C22.5794 25.2471 22.7098 25.1003 22.7942 24.8344C22.8583 24.6323 22.9049 24.5828 23.0593 24.4184C23.0861 24.3899 23.1148 24.3593 23.1455 24.3259C23.6658 23.7597 23.5318 23.3273 23.3899 22.8694C23.2705 22.4841 23.4793 22.2377 23.9843 21.7674C24.2032 21.5636 24.4296 21.3528 24.6045 21.0995C24.6811 20.9886 24.914 20.6514 24.7699 20.3172C24.6286 19.9894 24.2695 19.9343 23.981 19.8901C23.867 19.8726 23.6948 19.8462 23.64 19.8104C23.3984 19.6524 23.2505 19.3226 23.1075 19.0037C23.079 18.9402 23.0509 18.8775 23.0225 18.8167C22.9717 18.7082 22.9209 18.5769 22.8672 18.4379C22.7251 18.0701 22.5641 17.6532 22.2899 17.3626C22.0434 17.1014 21.5789 16.9757 21.169 16.8646C21.0311 16.8273 20.901 16.7921 20.8152 16.7604C20.7433 16.7339 20.6652 16.7291 20.5908 16.7466C20.3913 16.7933 20.2668 16.8448 20.1744 16.9189C20.15 16.9385 20.0777 17.0027 20.0353 17.106C19.8923 17.0374 19.6957 16.9063 19.5747 16.8257C19.5722 16.824 19.5696 16.8223 19.5671 16.8206C19.6079 16.6574 19.571 16.5264 19.5323 16.4446C19.3141 15.9831 18.5898 16.0192 18.4469 16.0314C18.3657 16.0382 18.263 16.0418 18.1544 16.0456C17.9838 16.0517 17.7952 16.0585 17.6086 16.0794L17.6182 16.0526C17.7598 15.658 18.1367 15.3928 18.556 15.3928H18.7781C18.9937 15.3928 19.1687 15.2179 19.1687 15.0022C19.1687 14.7865 18.9937 14.6116 18.7781 14.6116H18.556C17.9335 14.6116 17.3635 14.9392 17.044 15.4549L16.4613 14.6388L17.0345 13.2494L19.562 12.3633C19.6313 12.339 19.6924 12.2956 19.7382 12.2381L20.8618 10.8288C23.7327 11.1019 26.435 12.7115 27.9835 15.3936C28.396 16.108 28.7011 16.8601 28.904 17.6294L28.7384 17.7771C28.5222 17.9699 28.3956 18.2465 28.3908 18.536C28.3907 18.5392 28.3906 18.5423 28.3905 18.5454L28.1208 17.8035C28.0806 17.6928 28.0213 17.5913 27.9449 17.5018L27.4636 16.9384C27.2771 16.72 27.0054 16.5948 26.7183 16.5948H26.1293C25.9202 16.5948 25.7291 16.7094 25.6304 16.8936C25.5318 17.0779 25.5426 17.3005 25.6586 17.4744L25.7182 17.5639C25.3375 17.8912 24.8973 18.1531 24.4286 18.3298L23.6211 16.7832V16.4381C23.6211 16.3314 23.5775 16.2292 23.5002 16.1556L22.7732 15.4615C22.733 15.4232 22.6852 15.3939 22.6329 15.3755L21.9784 15.1455C21.7748 15.0739 21.5519 15.181 21.4804 15.3845C21.4089 15.5881 21.5159 15.811 21.7194 15.8825L22.2946 16.0847L22.84 16.6053V16.879C22.84 16.9419 22.8552 17.004 22.8843 17.0598L23.8952 18.996C23.9861 19.1702 24.1924 19.2498 24.3765 19.1817L24.6709 19.0732C25.3547 18.821 25.9884 18.4153 26.5038 17.9001C26.6354 17.7684 26.6559 17.5622 26.5525 17.4073L26.5318 17.376H26.7183C26.7766 17.376 26.8318 17.4015 26.8697 17.4459L27.3509 18.0093C27.3664 18.0274 27.3784 18.048 27.3866 18.0705L27.9177 19.5308C27.9633 19.6563 28.0699 19.7497 28.2001 19.7786C28.2282 19.7848 28.2565 19.7879 28.2847 19.7879C28.3872 19.7879 28.4869 19.7475 28.5609 19.6734L28.8137 19.4207C28.9737 19.2605 29.0839 19.058 29.1366 18.8334C29.5275 21.9664 28.299 25.2074 25.7024 27.2454C25.5327 27.3786 25.5031 27.6241 25.6363 27.7938C25.7695 27.9635 26.0149 27.9932 26.1847 27.8599C28.0594 26.3885 29.3473 24.284 29.8112 21.9341C30.2794 19.5614 29.8706 17.0999 28.66 15.0031ZM11.8469 21.0448L13.4576 22.2695C13.5052 22.3057 13.5605 22.3304 13.6191 22.3419L14.5899 22.5316C14.7138 22.5558 14.8172 22.6291 14.8811 22.738C14.9449 22.8468 14.9584 22.9728 14.9191 23.0928C14.8382 23.3394 14.8378 23.6002 14.918 23.847L15.0418 24.2278C15.1157 24.4553 14.9906 24.7007 14.7631 24.7746L14.3749 24.9008C14.2395 24.9447 14.1388 25.059 14.112 25.1987L13.7996 26.8296C13.1128 26.2009 12.5097 25.458 12.0202 24.6101C11.423 23.5758 11.0499 22.4727 10.8855 21.3572L11.8469 21.0448ZM14.1234 14.8147L13.6639 15.3071C13.6434 15.329 13.6255 15.3533 13.6105 15.3794L12.5671 17.2012L11.6397 17.8643C11.4669 17.9878 11.4245 18.2266 11.5441 18.4021L11.891 18.9108C11.691 18.9406 11.5116 18.9651 11.3923 18.9781C11.3694 18.9561 11.3454 18.9338 11.3206 18.9108C11.2278 18.8245 11.0987 18.7093 10.9064 18.541C11.2236 16.5776 12.1697 14.7279 13.6577 13.316C13.9426 13.4057 14.1764 13.6183 14.2907 13.8955C14.4192 14.2073 14.3535 14.5681 14.1234 14.8147ZM17.3082 16.9492C17.4824 16.8512 17.8868 16.8369 18.182 16.8264C18.3003 16.8222 18.4121 16.8182 18.512 16.8099C18.5647 16.8055 18.6232 16.8063 18.6784 16.8106C18.6537 16.8739 18.6457 16.9433 18.6564 17.0122C18.6752 17.1334 18.7499 17.2387 18.8581 17.2966C18.9313 17.3358 19.0333 17.4038 19.1413 17.4758C19.4466 17.6793 19.7926 17.91 20.1177 17.9307C20.4133 17.9498 20.5778 17.7814 20.6483 17.7096C20.6539 17.7039 20.6592 17.6982 20.6649 17.693C20.7046 17.6607 20.7417 17.6173 20.7694 17.565C20.8319 17.5828 20.8975 17.6006 20.9648 17.6189C21.196 17.6815 21.6266 17.798 21.7217 17.8988C21.8906 18.0779 22.0223 18.4188 22.1385 18.7196C22.1972 18.8716 22.2527 19.015 22.3149 19.148C22.3416 19.2051 22.3679 19.2639 22.3946 19.3234C22.5749 19.7254 22.7792 20.1811 23.2126 20.4644C23.4091 20.5929 23.65 20.6298 23.8626 20.6624C23.8883 20.6664 23.9177 20.6709 23.9477 20.6758C23.8215 20.8518 23.6418 21.0191 23.452 21.1959C22.9685 21.6462 22.3667 22.2067 22.6438 23.1008C22.7746 23.5229 22.7807 23.5686 22.5704 23.7974C22.5417 23.8286 22.515 23.857 22.49 23.8837C22.3098 24.0755 22.1675 24.227 22.0497 24.5981C22.0155 24.7058 21.9711 24.7558 21.8906 24.8464C21.8262 24.9189 21.746 25.0092 21.6721 25.1358C21.5835 25.2874 21.5542 25.4334 21.5307 25.5507C21.5076 25.6662 21.4944 25.7241 21.4491 25.7797C21.346 25.9064 21.1535 26.0903 20.956 26.2158C20.7724 26.3323 20.6652 26.3483 20.6287 26.3461C20.587 26.3014 20.436 26.1057 20.2079 25.4287C20.1517 25.2616 20.0736 25.0897 19.9981 24.9235C19.8318 24.5571 19.6598 24.1782 19.7435 23.9193C19.7533 23.8887 19.7631 23.8589 19.7727 23.8297C19.9064 23.4223 20.0326 23.0376 19.7988 22.4774C19.7276 22.3068 19.6143 22.1822 19.5144 22.0722C19.4498 22.001 19.3765 21.9204 19.3653 21.874C19.3515 21.8174 19.3519 21.752 19.3524 21.6764C19.3538 21.4723 19.3558 21.1639 19.0492 20.8768C18.6169 20.4722 18.1129 20.5968 17.7793 20.6793C17.6768 20.7046 17.58 20.7286 17.4942 20.7387C16.9455 20.803 16.4556 20.5959 16.1497 20.1703C15.8297 19.7251 15.7833 19.126 16.0285 18.6069C16.1472 18.3557 16.3266 18.1538 16.5342 17.9202C16.5796 17.8692 16.6254 17.8177 16.6711 17.765C16.7473 17.6771 16.8311 17.5582 16.9198 17.4323C17.0256 17.2821 17.2226 17.0025 17.3082 16.9492Z" fill="white"/>
<path d="M26.0165 23.4484L25.8286 22.74C25.7875 22.5853 25.6563 22.4713 25.4974 22.4524C25.3384 22.4338 25.1841 22.5133 25.1077 22.654C25.0649 22.7329 25.0264 22.8165 24.9891 22.8973C24.9264 23.0333 24.8616 23.1739 24.7941 23.2515C24.7562 23.2951 24.6589 23.3421 24.5648 23.3875C24.3399 23.496 24.0319 23.6446 23.9143 24.0197C23.8412 24.2524 23.8685 24.4364 23.8884 24.5708C23.9056 24.6873 23.9096 24.7277 23.8784 24.801L23.8745 24.8101C23.7502 25.1019 23.5188 25.645 23.8432 26.1068C24.0746 26.4363 24.318 26.521 24.5071 26.521C24.544 26.5212 24.5789 26.5179 24.6113 26.5126C25.0097 26.4475 25.3092 26.0331 25.554 25.2082L26.0134 23.6597C26.0339 23.5909 26.035 23.5177 26.0165 23.4484ZM24.8051 24.986C24.6804 25.4065 24.57 25.6029 24.5063 25.6899C24.4989 25.6805 24.4909 25.6699 24.4824 25.6578C24.4078 25.5514 24.5193 25.2896 24.5932 25.1162L24.5971 25.1071C24.7162 24.8276 24.6843 24.613 24.6612 24.4563C24.6463 24.356 24.641 24.3128 24.6596 24.2536C24.6749 24.2049 24.7664 24.1576 24.9043 24.091C24.9655 24.0615 25.0328 24.029 25.1007 23.9897L24.8051 24.986Z" fill="white"/>
<path d="M20.5481 14.643L20.5217 14.6337C20.3183 14.5625 20.0953 14.6695 20.0239 14.873C19.9524 15.0766 20.0596 15.2995 20.2631 15.3709L20.2895 15.3801C20.3323 15.3951 20.3758 15.4022 20.4188 15.4022C20.58 15.4022 20.731 15.3015 20.7874 15.1408C20.8588 14.9372 20.7516 14.7143 20.5481 14.643Z" fill="white"/>
</svg>
