<svg width="56" height="50" viewBox="0 0 56 50" fill="none" xmlns="http://www.w3.org/2000/svg">
<path d="M24.8908 10.0437C25.4938 10.0437 25.9825 9.5548 25.9825 8.95196V5.45852C25.9825 2.44869 23.5338 0 20.524 0H5.45852C2.44869 0 0 2.44869 0 5.45852V18.5576C0 21.5675 2.44869 24.0162 5.45852 24.0162H12.521C12.2725 32.1718 9.17806 36.4116 3.08221 36.9662C2.51987 37.0174 2.08941 37.4888 2.08941 38.0534V48.9083C2.08941 49.2085 2.21299 49.4954 2.43111 49.7016C2.63439 49.8937 2.90284 50 3.181 50C3.20142 50 3.22194 49.9995 3.24236 49.9983C10.7651 49.5751 16.5077 46.9861 20.311 42.3032C24.0743 37.6693 25.9825 30.8984 25.9825 22.1782V18.2678C25.9825 17.665 25.4938 17.1761 24.8908 17.1761C24.2879 17.1761 23.7991 17.665 23.7991 18.2678V22.1782C23.7991 38.1873 17.4088 46.5593 4.27293 47.7346V39.0189C7.5929 38.5025 10.1609 36.9571 11.9156 34.4162C13.7769 31.7206 14.7206 27.8544 14.7206 22.9245C14.7206 22.3216 14.2319 21.8328 13.6289 21.8328H5.45852C3.65262 21.8328 2.18341 20.3635 2.18341 18.5576V5.45852C2.18341 3.65262 3.65262 2.18341 5.45852 2.18341H20.524C22.3299 2.18341 23.7991 3.65262 23.7991 5.45852V8.95196C23.7991 9.5548 24.2879 10.0437 24.8908 10.0437Z" fill="#F29203"/>
<path d="M50.4367 0H35.3712C32.3614 0 29.9127 2.44869 29.9127 5.45852V18.5576C29.9127 21.5675 32.3614 24.0162 35.3712 24.0162H42.4336C42.1852 32.1718 39.0907 36.4116 32.9949 36.9662C32.4326 37.0174 32.0021 37.4888 32.0021 38.0534V48.9083C32.0021 49.2085 32.1257 49.4954 32.3438 49.7016C32.5471 49.8938 32.8155 50 33.0937 50C33.1141 50 33.1346 49.9995 33.155 49.9983C40.6777 49.5751 46.4204 46.9861 50.2237 42.3032C53.987 37.6694 55.8952 30.8984 55.8952 22.1782V5.45852C55.8952 2.44869 53.4465 0 50.4367 0ZM53.7118 22.1782C53.7118 38.1873 47.3215 46.5593 34.1855 47.7346V39.0189C37.5056 38.5025 40.0736 36.9571 41.8282 34.4162C43.6894 31.7207 44.6332 27.8545 44.6332 22.9245C44.6332 22.3216 44.1444 21.8328 43.5415 21.8328H35.3712C33.5653 21.8328 32.0961 20.3635 32.0961 18.5576V5.45852C32.0961 3.65262 33.5653 2.18341 35.3712 2.18341H48.4716V10.2657C48.4716 10.8686 48.9604 11.3574 49.5633 11.3574C50.1663 11.3574 50.655 10.8686 50.655 10.2657V2.19148C52.3594 2.30437 53.7118 3.72609 53.7118 5.45852V22.1782Z" fill="#F29203"/>
<path d="M49.5633 12.9641C48.9604 12.9641 48.4716 13.4583 48.4716 14.0611C48.4716 14.664 48.9604 15.1528 49.5633 15.1528C50.1662 15.1528 50.655 14.664 50.655 14.0611V14.0503C50.655 13.4475 50.1663 12.9641 49.5633 12.9641Z" fill="#F29203"/>
<path d="M24.8908 12.5181C24.2879 12.5181 23.7991 13.007 23.7991 13.6098V13.6326C23.7991 14.2355 24.2879 14.7243 24.8908 14.7243C25.4938 14.7243 25.9825 14.2355 25.9825 13.6326V13.6098C25.9825 13.007 25.4938 12.5181 24.8908 12.5181Z" fill="#F29203"/>
</svg>
