<svg width="40" height="40" viewBox="0 0 40 40" fill="none" xmlns="http://www.w3.org/2000/svg">
<rect width="40" height="40" rx="4" fill="#151515"/>
<path d="M28.75 26.3H11.25C10.5608 26.3 10 25.6943 10 24.95V12.35C10 11.6057 10.5608 11 11.25 11H28.75C29.4392 11 30 11.6057 30 12.35V24.95C30 25.6943 29.4392 26.3 28.75 26.3ZM11.25 11.9C11.02 11.9 10.8333 12.1025 10.8333 12.35V24.95C10.8333 25.1975 11.02 25.4 11.25 25.4H28.75C28.98 25.4 29.1667 25.1975 29.1667 24.95V12.35C29.1667 12.1025 28.98 11.9 28.75 11.9H11.25Z" fill="white"/>
<path d="M22.9167 29H17.0833C16.915 29 16.7625 28.8902 16.6983 28.7219C16.6333 28.5536 16.6692 28.3601 16.7883 28.2314C17.885 27.047 17.8992 25.9004 17.8992 25.8518C17.9 25.6052 18.0867 25.4 18.3167 25.4H21.6667C21.8958 25.4 22.0825 25.6007 22.0833 25.8473C22.0842 25.904 22.1167 27.0497 23.2117 28.2314C23.3308 28.3601 23.3667 28.5536 23.3017 28.7219C23.2375 28.8902 23.085 29 22.9167 29ZM17.9758 28.1H22.0233C21.5567 27.3791 21.3717 26.7167 21.2983 26.3H18.69C18.6192 26.7185 18.4392 27.38 17.9758 28.1Z" fill="white"/>
<path d="M29.5833 23.6H10.4167C10.1867 23.6 10 23.3984 10 23.15C10 22.9016 10.1867 22.7 10.4167 22.7H29.5833C29.8133 22.7 30 22.9016 30 23.15C30 23.3984 29.8133 23.6 29.5833 23.6Z" fill="white"/>
</svg>
