<svg width="40" height="40" viewBox="0 0 40 40" fill="none" xmlns="http://www.w3.org/2000/svg">
<rect width="40" height="40" rx="4" fill="#151515"/>
<path d="M21.1094 17.4219C20.8938 17.4219 20.7188 17.5969 20.7188 17.8125C20.7188 18.0281 20.8938 18.2031 21.1094 18.2031C21.325 18.2031 21.5 18.0281 21.5 17.8125C21.5 17.5969 21.325 17.4219 21.1094 17.4219Z" fill="white"/>
<path d="M28.5422 27.3328L23.3282 22.1187C24.1776 20.8393 24.625 19.3576 24.625 17.8125C24.625 13.5047 21.1203 10 16.8125 10C12.5047 10 9 13.5047 9 17.8125C9 22.1203 12.5047 25.625 16.8125 25.625C18.3577 25.625 19.8393 25.1775 21.1187 24.3282L22.5599 25.7694C22.5601 25.7696 22.5603 25.7698 22.5605 25.77L26.3327 29.5422C26.628 29.8374 27.0203 30 27.4375 30C27.8547 30 28.247 29.8374 28.5421 29.5423C28.8374 29.2473 29 28.855 29 28.4375C29 28.02 28.8374 27.6277 28.5422 27.3328ZM20.935 23.505C20.935 23.505 20.935 23.505 20.9349 23.505C19.7292 24.3808 18.3037 24.8438 16.8125 24.8438C12.9355 24.8438 9.78125 21.6895 9.78125 17.8125C9.78125 13.9355 12.9355 10.7812 16.8125 10.7812C20.6895 10.7812 23.8438 13.9355 23.8438 17.8125C23.8438 19.3037 23.3808 20.7292 22.505 21.935C22.0668 22.5386 21.5386 23.0668 20.935 23.505ZM21.7545 23.8591C22.1588 23.5284 22.5284 23.1588 22.8591 22.7545L23.9673 23.8628C23.6303 24.2605 23.2605 24.6304 22.8628 24.9673L21.7545 23.8591ZM27.9898 28.9898C27.8421 29.1375 27.646 29.2188 27.4375 29.2188C27.229 29.2188 27.0329 29.1375 26.8852 28.9898L23.4166 25.5212C23.8122 25.1818 24.1818 24.8123 24.5212 24.4167L27.9899 27.8854C28.1375 28.0328 28.2188 28.2288 28.2188 28.4375C28.2188 28.6462 28.1375 28.8422 27.9898 28.9898Z" fill="white"/>
<path d="M16.8125 11.5625C13.3662 11.5625 10.5625 14.3662 10.5625 17.8125C10.5625 21.2588 13.3662 24.0625 16.8125 24.0625C20.2588 24.0625 23.0625 21.2588 23.0625 17.8125C23.0625 14.3662 20.2588 11.5625 16.8125 11.5625ZM16.8125 23.2812C13.797 23.2812 11.3438 20.828 11.3438 17.8125C11.3438 14.797 13.797 12.3438 16.8125 12.3438C19.828 12.3438 22.2812 14.797 22.2812 17.8125C22.2812 20.828 19.828 23.2812 16.8125 23.2812Z" fill="white"/>
<path d="M21.19 16.1357C20.8537 15.2602 20.268 14.5117 19.4963 13.9711C18.7062 13.4176 17.7782 13.125 16.8125 13.125C16.5968 13.125 16.4219 13.2999 16.4219 13.5156C16.4219 13.7313 16.5968 13.9062 16.8125 13.9062C18.4179 13.9062 19.884 14.9148 20.4608 16.4159C20.5205 16.5712 20.6685 16.6665 20.8255 16.6665C20.8721 16.6665 20.9195 16.6581 20.9655 16.6404C21.1669 16.563 21.2674 16.3371 21.19 16.1357Z" fill="white"/>
</svg>
