<svg width="40" height="40" viewBox="0 0 40 40" fill="none" xmlns="http://www.w3.org/2000/svg">
<rect width="40" height="40" rx="4" fill="#FF3B5D"/>
<path d="M10.8333 11.9333H11.2V10.1C11.2 9.49353 11.6935 9 12.3 9H13.0333C13.6398 9 14.1333 9.49353 14.1333 10.1V11.9333H25.8667V10.1C25.8667 9.49353 26.3602 9 26.9667 9H27.7C28.3065 9 28.8 9.49353 28.8 10.1V11.9333H29.1667C30.1776 11.9333 31 12.7558 31 13.7667V29.1667C31 30.1776 30.1776 31 29.1667 31H10.8333C9.82243 31 9 30.1776 9 29.1667V13.7667C9 12.7558 9.82243 11.9333 10.8333 11.9333ZM13.4 12.3V10.1C13.4 9.8976 13.2357 9.73333 13.0333 9.73333H12.3C12.0976 9.73333 11.9333 9.8976 11.9333 10.1V12.3V13.7667C11.9333 13.9691 12.0976 14.1333 12.3 14.1333H13.0333C13.2357 14.1333 13.4 13.9691 13.4 13.7667V12.3ZM28.0667 12.3V10.1C28.0667 9.8976 27.9024 9.73333 27.7 9.73333H26.9667C26.7643 9.73333 26.6 9.8976 26.6 10.1V12.3V13.7667C26.6 13.9691 26.7643 14.1333 26.9667 14.1333H27.7C27.9024 14.1333 28.0667 13.9691 28.0667 13.7667V12.3ZM9.73333 29.1667C9.73333 29.7731 10.2269 30.2667 10.8333 30.2667H29.1667C29.7731 30.2667 30.2667 29.7731 30.2667 29.1667V18.5333H9.73333V29.1667ZM9.73333 17.8H30.2667V13.7667C30.2667 13.1602 29.7731 12.6667 29.1667 12.6667H28.8V13.7667C28.8 14.3731 28.3065 14.8667 27.7 14.8667H26.9667C26.3602 14.8667 25.8667 14.3731 25.8667 13.7667V12.6667H14.1333V13.7667C14.1333 14.3731 13.6398 14.8667 13.0333 14.8667H12.3C11.6935 14.8667 11.2 14.3731 11.2 13.7667V12.6667H10.8333C10.2269 12.6667 9.73333 13.1602 9.73333 13.7667V17.8Z" fill="white"/>
<path d="M15.9667 13.7667H24.0333C24.2361 13.7667 24.4 13.9306 24.4 14.1333V16.3333C24.4 16.5361 24.2361 16.7 24.0333 16.7H15.9667C15.7639 16.7 15.6 16.5361 15.6 16.3333V14.1333C15.6 13.9306 15.7639 13.7667 15.9667 13.7667ZM16.3333 15.9667H23.6667V14.5H16.3333V15.9667Z" fill="white"/>
<path d="M26.2333 19.6333H28.4333C28.6361 19.6333 28.8 19.7972 28.8 20V21.8333C28.8 22.0361 28.6361 22.2 28.4333 22.2H26.2333C26.0306 22.2 25.8667 22.0361 25.8667 21.8333V20C25.8667 19.7972 26.0306 19.6333 26.2333 19.6333ZM26.6 21.4667H28.0667V20.3667H26.6V21.4667Z" fill="white"/>
<path d="M21.4667 19.6333H23.6667C23.8694 19.6333 24.0333 19.7972 24.0333 20V21.8333C24.0333 22.0361 23.8694 22.2 23.6667 22.2H21.4667C21.2639 22.2 21.1 22.0361 21.1 21.8333V20C21.1 19.7972 21.2639 19.6333 21.4667 19.6333ZM21.8333 21.4667H23.3V20.3667H21.8333V21.4667Z" fill="white"/>
<path d="M16.3333 19.6333H18.5333C18.7361 19.6333 18.9 19.7972 18.9 20V21.8333C18.9 22.0361 18.7361 22.2 18.5333 22.2H16.3333C16.1306 22.2 15.9667 22.0361 15.9667 21.8333V20C15.9667 19.7972 16.1306 19.6333 16.3333 19.6333ZM16.7 21.4667H18.1667V20.3667H16.7V21.4667Z" fill="white"/>
<path d="M11.5667 19.6333H13.7667C13.9694 19.6333 14.1333 19.7972 14.1333 20V21.8333C14.1333 22.0361 13.9694 22.2 13.7667 22.2H11.5667C11.3639 22.2 11.2 22.0361 11.2 21.8333V20C11.2 19.7972 11.3639 19.6333 11.5667 19.6333ZM11.9333 21.4667H13.4V20.3667H11.9333V21.4667Z" fill="white"/>
<path d="M26.2333 23.3H28.4333C28.6361 23.3 28.8 23.4639 28.8 23.6667V25.5C28.8 25.7028 28.6361 25.8667 28.4333 25.8667H26.2333C26.0306 25.8667 25.8667 25.7028 25.8667 25.5V23.6667C25.8667 23.4639 26.0306 23.3 26.2333 23.3ZM26.6 25.1333H28.0667V24.0333H26.6V25.1333Z" fill="white"/>
<path d="M21.4667 23.3H23.6667C23.8694 23.3 24.0333 23.4639 24.0333 23.6667V25.5C24.0333 25.7028 23.8694 25.8667 23.6667 25.8667H21.4667C21.2639 25.8667 21.1 25.7028 21.1 25.5V23.6667C21.1 23.4639 21.2639 23.3 21.4667 23.3ZM21.8333 25.1333H23.3V24.0333H21.8333V25.1333Z" fill="white"/>
<path d="M16.3333 23.3H18.5333C18.7361 23.3 18.9 23.4639 18.9 23.6667V25.5C18.9 25.7028 18.7361 25.8667 18.5333 25.8667H16.3333C16.1306 25.8667 15.9667 25.7028 15.9667 25.5V23.6667C15.9667 23.4639 16.1306 23.3 16.3333 23.3ZM16.7 25.1333H18.1667V24.0333H16.7V25.1333Z" fill="white"/>
<path d="M11.5667 23.3H13.7667C13.9694 23.3 14.1333 23.4639 14.1333 23.6667V25.5C14.1333 25.7028 13.9694 25.8667 13.7667 25.8667H11.5667C11.3639 25.8667 11.2 25.7028 11.2 25.5V23.6667C11.2 23.4639 11.3639 23.3 11.5667 23.3ZM11.9333 25.1333H13.4V24.0333H11.9333V25.1333Z" fill="white"/>
<path d="M26.2333 26.9667H28.4333C28.6361 26.9667 28.8 27.1306 28.8 27.3333V29.1667C28.8 29.3694 28.6361 29.5333 28.4333 29.5333H26.2333C26.0306 29.5333 25.8667 29.3694 25.8667 29.1667V27.3333C25.8667 27.1306 26.0306 26.9667 26.2333 26.9667ZM26.6 28.8H28.0667V27.7H26.6V28.8Z" fill="white"/>
<path d="M21.4667 26.9667H23.6667C23.8694 26.9667 24.0333 27.1306 24.0333 27.3333V29.1667C24.0333 29.3694 23.8694 29.5333 23.6667 29.5333H21.4667C21.2639 29.5333 21.1 29.3694 21.1 29.1667V27.3333C21.1 27.1306 21.2639 26.9667 21.4667 26.9667ZM21.8333 28.8H23.3V27.7H21.8333V28.8Z" fill="white"/>
<path d="M16.2483 26.732L17.8246 28.6236L18.6408 27.8074L19.1592 28.3259L18.0592 29.4259C17.9907 29.4952 17.8972 29.5333 17.8 29.5333C17.7945 29.5333 17.789 29.5333 17.7835 29.533C17.6805 29.5282 17.5844 29.4805 17.518 29.4017L15.6847 27.2017L16.2483 26.732Z" fill="white"/>
<path d="M11.8483 26.732L13.4246 28.6236L14.2408 27.8074L14.7592 28.3259L13.6592 29.4259C13.5907 29.4952 13.4972 29.5333 13.4 29.5333C13.3945 29.5333 13.389 29.5333 13.3835 29.533C13.2805 29.5282 13.1844 29.4805 13.118 29.4017L11.2847 27.2017L11.8483 26.732Z" fill="white"/>
</svg>
