<svg width="40" height="40" viewBox="0 0 40 40" fill="none" xmlns="http://www.w3.org/2000/svg">
<rect width="40" height="40" rx="4" fill="#FF3B5D"/>
<path d="M15.2324 18.8982H12.6661C12.4637 18.8982 12.2995 19.0624 12.2995 19.2648V22.931C12.2995 23.1335 12.4637 23.2976 12.6661 23.2976H15.2324C15.4349 23.2976 15.5991 23.1335 15.5991 22.931V19.2648C15.5991 19.0624 15.4349 18.8982 15.2324 18.8982ZM14.8658 22.5644H13.0327V19.6315H14.8658V22.5644Z" fill="white"/>
<path d="M21.4648 18.8982H18.8985C18.6961 18.8982 18.5319 19.0624 18.5319 19.2648V22.931C18.5319 23.1335 18.6961 23.2976 18.8985 23.2976H21.4648C21.6673 23.2976 21.8315 23.1335 21.8315 22.931V19.2648C21.8315 19.0624 21.6673 18.8982 21.4648 18.8982ZM21.0982 22.5644H19.2652V19.6315H21.0982V22.5644Z" fill="white"/>
<path d="M21.4648 24.764H18.8985C18.6961 24.764 18.5319 24.9282 18.5319 25.1306V28.7968C18.5319 28.9993 18.6961 29.1634 18.8985 29.1634H21.4648C21.6673 29.1634 21.8315 28.9993 21.8315 28.7968V25.1306C21.8315 24.9282 21.6673 24.764 21.4648 24.764ZM21.0982 28.4302H19.2652V25.4973H21.0982V28.4302Z" fill="white"/>
<path d="M27.3307 18.8982H24.7644C24.5619 18.8982 24.3978 19.0624 24.3978 19.2648V22.931C24.3978 23.1335 24.5619 23.2976 24.7644 23.2976H27.3307C27.5331 23.2976 27.6973 23.1335 27.6973 22.931V19.2648C27.6973 19.0624 27.5331 18.8982 27.3307 18.8982ZM26.9641 22.5644H25.131V19.6315H26.9641V22.5644Z" fill="white"/>
<path d="M15.2324 24.764H12.6661C12.4637 24.764 12.2995 24.9282 12.2995 25.1306V28.7968C12.2995 28.9993 12.4637 29.1634 12.6661 29.1634H15.2324C15.4349 29.1634 15.5991 28.9993 15.5991 28.7968V25.1306C15.5991 24.9282 15.4349 24.764 15.2324 24.764ZM14.8658 28.4302H13.0327V25.4973H14.8658V28.4302Z" fill="white"/>
<path d="M27.3307 24.764H24.7644C24.5619 24.764 24.3978 24.9282 24.3978 25.1306V28.7968C24.3978 28.9993 24.5619 29.1634 24.7644 29.1634H27.3307C27.5331 29.1634 27.6973 28.9993 27.6973 28.7968V25.1306C27.6973 24.9282 27.5331 24.764 27.3307 24.764ZM26.9641 28.4302H25.131V25.4973H26.9641V28.4302Z" fill="white"/>
<path d="M29.5304 30.2636V17.7987H29.897C30.0995 17.7987 30.2636 17.6346 30.2636 17.4321V15.5991C30.2636 15.3966 30.0995 15.2324 29.897 15.2324H29.5304V13.766C29.5304 13.5635 29.3662 13.3994 29.1638 13.3994H28.4306V9.36661C28.4306 9.16414 28.2664 9 28.0639 9H11.9329C11.7304 9 11.5663 9.16414 11.5663 9.36661V13.3994H10.8331C10.6306 13.3994 10.4665 13.5635 10.4665 13.766V15.2324H10.0999C9.8974 15.2324 9.73326 15.3965 9.73326 15.599V17.4321C9.73326 17.6345 9.8974 17.7987 10.0999 17.7987H10.4665V30.2635H9V30.9967H10.8331H29.1638H31V30.2635H29.5304V30.2636ZM12.2995 9.73322H27.6973V13.3994H12.2995V9.73322ZM11.1997 14.1326H11.9329H28.0639H28.7971V15.2324H11.1997V14.1326ZM28.7971 30.2636H11.1997V17.7987H28.7972V30.2636H28.7971ZM10.8331 17.0655H10.4665V15.9657H10.8331H29.1638H29.5304V17.0655H29.1638H10.8331Z" fill="white"/>
<path d="M19.4353 10.9872C19.377 10.8382 19.2951 10.7095 19.1895 10.6011C19.0839 10.4928 18.9569 10.4078 18.8084 10.3463C18.6599 10.2847 18.4955 10.2539 18.3151 10.2539C18.1347 10.2539 17.97 10.2844 17.821 10.3454C17.672 10.4065 17.5444 10.4914 17.4383 10.6003C17.3322 10.7092 17.25 10.8382 17.1917 10.9872C17.1333 11.1362 17.1042 11.2982 17.1042 11.4731C17.1042 11.6479 17.1333 11.8099 17.1917 11.9589C17.25 12.1079 17.3322 12.2369 17.4383 12.3458C17.5444 12.4547 17.672 12.5396 17.821 12.6007C17.97 12.6618 18.1347 12.6923 18.3151 12.6923C18.4955 12.6923 18.6599 12.6618 18.8084 12.6007C18.9569 12.5397 19.0839 12.4547 19.1895 12.3458C19.2951 12.2369 19.377 12.108 19.4353 11.9589C19.4936 11.8099 19.5227 11.6479 19.5227 11.4731C19.5227 11.2981 19.4936 11.1362 19.4353 10.9872ZM19.0154 11.8252C18.9808 11.9292 18.931 12.0172 18.8661 12.0892C18.8012 12.1613 18.7223 12.2165 18.6293 12.255C18.5364 12.2935 18.4316 12.3128 18.3151 12.3128C18.1985 12.3128 18.0934 12.2935 18 12.255C17.9065 12.2165 17.827 12.1613 17.7616 12.0892C17.6961 12.0171 17.6458 11.9292 17.6106 11.8252C17.5754 11.7213 17.5578 11.6039 17.5578 11.473C17.5578 11.3421 17.5754 11.2247 17.6106 11.1208C17.6458 11.0169 17.6961 10.9286 17.7616 10.856C17.827 10.7835 17.9065 10.7279 18 10.6894C18.0935 10.6509 18.1985 10.6316 18.3151 10.6316C18.4316 10.6316 18.5364 10.6509 18.6293 10.6894C18.7223 10.7279 18.8012 10.7835 18.8661 10.856C18.931 10.9286 18.9807 11.0169 19.0154 11.1208C19.0501 11.2247 19.0674 11.3421 19.0674 11.473C19.0674 11.6039 19.0501 11.7213 19.0154 11.8252Z" fill="white"/>
<path d="M16.3057 10.2803V11.3064H15.1872V10.2803H14.7401V12.6658H15.1872V11.6232H16.3057V12.6658H16.7528V10.2803H16.3057Z" fill="white"/>
<path d="M24.0398 12.2995V10.2803H23.596V12.6658H24.995V12.2995H24.0398Z" fill="white"/>
<path d="M19.5425 10.2803V10.6448H20.2635V12.6658H20.7073V10.6448H21.4249V10.2803H19.5425Z" fill="white"/>
<path d="M23.2116 10.6333V10.2803H21.707V12.6658H23.2116V12.3111H22.1541V11.6364H22.9872V11.2948H22.1541V10.6333H23.2116Z" fill="white"/>
</svg>
