<svg width="40" height="40" viewBox="0 0 40 40" fill="none" xmlns="http://www.w3.org/2000/svg">
<rect width="40" height="40" rx="4" fill="#FF3B5D"/>
<path d="M31.2812 28.5625H30.7643L30.1817 26.232C30.1016 25.912 29.8142 25.6875 29.4844 25.6875H26.9688V24.6094H29.125C29.522 24.6094 29.8438 24.2876 29.8438 23.8906C29.8438 23.4937 29.522 23.1719 29.125 23.1719V22.8125C29.125 18.2987 25.6395 14.5842 21.2188 14.2177V13.1094H22.2969C22.6938 13.1094 23.0156 12.7876 23.0156 12.3906C23.0156 11.9937 22.6938 11.6719 22.2969 11.6719H18.7031C18.3062 11.6719 17.9844 11.9937 17.9844 12.3906C17.9844 12.7876 18.3062 13.1094 18.7031 13.1094H19.7812V14.2177C15.3605 14.5842 11.875 18.2987 11.875 22.8125V23.1719C11.478 23.1719 11.1562 23.4937 11.1562 23.8906C11.1562 24.2876 11.478 24.6094 11.875 24.6094H14.0312V25.6875H11.5156C11.1858 25.6875 10.8984 25.912 10.8183 26.232L10.2357 28.5625H9.71875C9.32178 28.5625 9 28.8843 9 29.2812C9 29.6782 9.32178 30 9.71875 30H31.2812C31.6782 30 32 29.6782 32 29.2812C32 28.8843 31.6782 28.5625 31.2812 28.5625V28.5625ZM13.3125 22.8125C13.3125 18.8493 16.5368 15.625 20.5 15.625C24.4632 15.625 27.6875 18.8493 27.6875 22.8125V23.1719C25.503 23.1719 13.955 23.1719 13.3125 23.1719V22.8125ZM15.4688 24.6094H25.5312V25.6875H15.4688V24.6094ZM11.7174 28.5625L12.0768 27.125H28.9232L29.2826 28.5625H11.7174Z" fill="white"/>
<path d="M9.71875 19.2188H11.1562C11.5532 19.2188 11.875 18.8969 11.875 18.5C11.875 18.1031 11.5532 17.7812 11.1562 17.7812H9.71875C9.32178 17.7812 9 18.1031 9 18.5C9 18.8969 9.32178 19.2188 9.71875 19.2188Z" fill="white"/>
<path d="M29.8438 19.2188H31.2812C31.6782 19.2188 32 18.8969 32 18.5C32 18.1031 31.6782 17.7812 31.2812 17.7812H29.8438C29.4468 17.7812 29.125 18.1031 29.125 18.5C29.125 18.8969 29.4468 19.2188 29.8438 19.2188Z" fill="white"/>
<path d="M13.3847 12.4012C13.6654 12.6819 14.1205 12.6819 14.4012 12.4012C14.6819 12.1205 14.6819 11.6655 14.4012 11.3848L13.3847 10.3682C13.104 10.0876 12.6489 10.0875 12.3682 10.3682C12.0875 10.649 12.0875 11.104 12.3682 11.3847L13.3847 12.4012Z" fill="white"/>
<path d="M27.107 12.6117C27.291 12.6117 27.4749 12.5415 27.6152 12.4012L28.6317 11.3848C28.9124 11.1041 28.9124 10.649 28.6317 10.3683C28.3511 10.0877 27.896 10.0877 27.6153 10.3683L26.5988 11.3848C26.1447 11.8388 26.4725 12.6117 27.107 12.6117Z" fill="white"/>
<path d="M20.5 9.875C20.897 9.875 21.2188 9.55318 21.2188 9.15625V7.71875C21.2188 7.32182 20.897 7 20.5 7C20.103 7 19.7812 7.32182 19.7812 7.71875V9.15625C19.7812 9.55318 20.103 9.875 20.5 9.875Z" fill="white"/>
</svg>
