<svg xmlns="http://www.w3.org/2000/svg" width="154" height="32" viewBox="0 0 154 32"><path d="M5.513 29.885c2.694 2.383 6.107 2.237 7.186 0.292-1.712-1.339-5.259-0.938-7.186-0.292z"></path><path d="M8.586 27.766c-1.196-1.686-4.261-2.224-6.299-2.127 1.389 2.289 4.579 3.802 6.299 2.127z"></path><path d="M5.46 24.228c-0.661-1.865-3.090-3.074-5.026-3.469 0.761 2.573 3.185 4.397 5.026 3.469z"></path><path d="M3.55 19.917c0.028-1.776-2.039-3.6-3.55-4.366 0.096 2.393 1.576 4.707 3.55 4.366z"></path><path d="M3.037 15.238c0.18-0.665 0.095-1.304-0.159-1.924-0.036-0.107-0.102-0.222-0.129-0.359-0.355-0.842-0.99-1.727-1.722-2.379-0.511 2.002 0.192 4.429 2.010 4.662z"></path><path d="M3.965 10.626c0.784-1.214 0.188-3.321-0.607-4.574-0.937 1.659-0.869 3.915 0.607 4.574z"></path><path d="M6.242 6.541c1.012-0.861 0.991-2.812 0.583-4.058-1.163 1.177-1.688 3.11-0.583 4.058z"></path><path d="M11.068 0c-1.668 1.007-1.98 2.512-1.419 3.313 1.073-0.488 1.516-2.119 1.419-3.313z"></path><path d="M12.583 28.816c1.303-1.333 1.017-3.745 0.384-5.473-2.298 2.847-1.661 4.803-0.384 5.473z"></path><path d="M8.931 26.498c1.559-0.843 1.982-3.355 1.768-4.839-0.439 0.303-0.856 0.644-1.221 1.031-1.048 1.111-1.612 2.709-0.548 3.808z"></path><path d="M8.992 19.348c-2.967 1.012-3.421 2.803-2.835 3.869 1.587-0.349 2.537-2.296 2.835-3.869z"></path><path d="M7.978 16.512c-2.828 0.142-3.755 1.642-3.525 2.71 1.563 0.099 3.016-1.55 3.525-2.71z"></path><path d="M7.881 13.405c-1.588-0.365-3.583-0.062-3.782 1.505 1.266 0.473 2.965-0.527 3.782-1.505z"></path><path d="M4.989 10.676c0.973 0.717 2.705 0.311 3.707-0.391-1.954-1.048-3.34-0.483-3.707 0.391z"></path><path d="M7.116 6.907c0.674 0.863 2.283 0.91 3.315 0.573-1.363-1.31-2.701-1.283-3.315-0.573z"></path><path d="M10.259 3.932c0.399 0.919 1.69 1.301 2.739 1.261-0.919-1.513-2.177-1.659-2.739-1.26z"></path><path d="M12.627 29.25c-10.516-4.274-12.516-19.959-1.383-26.316l-0.066-0.115c-11.66 6.506-9.409 23.296 2.285 27.176l0.115-0.423c-0.332-0.090-0.626-0.202-0.95-0.322z"></path><path d="M148.969 29.885c-2.694 2.383-6.106 2.237-7.186 0.292 1.712-1.339 5.259-0.938 7.186-0.292z"></path><path d="M145.896 27.766c1.196-1.686 4.262-2.224 6.299-2.127-1.389 2.289-4.579 3.802-6.299 2.127z"></path><path d="M149.022 24.228c0.661-1.865 3.090-3.074 5.026-3.469-0.761 2.573-3.185 4.397-5.026 3.469z"></path><path d="M150.933 19.917c-0.028-1.776 2.039-3.6 3.55-4.366-0.096 2.393-1.576 4.707-3.55 4.366z"></path><path d="M151.446 15.238c-0.18-0.665-0.094-1.304 0.159-1.924 0.036-0.107 0.102-0.222 0.129-0.359 0.355-0.842 0.991-1.727 1.722-2.379 0.511 2.002-0.192 4.429-2.010 4.662z"></path><path d="M150.518 10.626c-0.784-1.214-0.188-3.321 0.607-4.574 0.937 1.659 0.868 3.915-0.607 4.574z"></path><path d="M148.241 6.541c-1.012-0.861-0.991-2.812-0.583-4.058 1.163 1.177 1.688 3.11 0.583 4.058z"></path><path d="M143.415 0c1.668 1.007 1.98 2.512 1.418 3.313-1.073-0.488-1.516-2.119-1.418-3.313z"></path><path d="M141.9 28.816c-1.303-1.333-1.017-3.745-0.383-5.473 2.298 2.847 1.661 4.803 0.383 5.473z"></path><path d="M145.552 26.498c-1.559-0.843-1.982-3.355-1.769-4.839 0.439 0.303 0.856 0.644 1.221 1.031 1.048 1.111 1.612 2.709 0.548 3.808z"></path><path d="M145.491 19.348c2.967 1.012 3.421 2.803 2.835 3.869-1.587-0.349-2.537-2.296-2.835-3.869z"></path><path d="M146.505 16.512c2.828 0.142 3.754 1.642 3.526 2.71-1.562 0.099-3.016-1.55-3.526-2.71z"></path><path d="M146.601 13.405c1.588-0.365 3.584-0.062 3.783 1.505-1.267 0.473-2.965-0.527-3.783-1.505z"></path><path d="M149.494 10.676c-0.973 0.717-2.705 0.311-3.706-0.391 1.953-1.048 3.34-0.483 3.706 0.391z"></path><path d="M147.367 6.907c-0.674 0.863-2.282 0.91-3.315 0.573 1.363-1.31 2.701-1.283 3.315-0.573z"></path><path d="M144.223 3.932c-0.399 0.919-1.69 1.301-2.739 1.261 0.919-1.513 2.177-1.659 2.739-1.26z"></path><path d="M141.855 29.25c10.516-4.274 12.516-19.959 1.383-26.316l0.066-0.115c11.66 6.506 9.409 23.296-2.285 27.176l-0.115-0.423c0.333-0.090 0.626-0.202 0.951-0.322z"></path><path d="M51.355 24.6c-0.548-0.276-0.913-0.506-1.095-0.643s-0.274-0.276-0.319-0.414c-0.046-0.138-0.046-0.322-0.046-0.597 0-0.184 0.046-0.322 0.091-0.414s0.183-0.138 0.319-0.138c0.183 0 0.274 0.046 0.319 0.138 0.046 0.138 0.091 0.414 0.091 0.781v0.46h2.282v-0.506c0-0.414 0-0.735-0.046-0.965-0.091-0.138-0.183-0.368-0.411-0.597s-0.502-0.46-0.913-0.597c-0.411-0.138-0.867-0.23-1.415-0.23s-1.050 0.092-1.506 0.276c-0.456 0.184-0.73 0.414-0.913 0.735-0.183 0.368-0.274 0.873-0.274 1.517 0 0.46 0.091 0.873 0.228 1.241s0.639 0.735 1.369 1.149c0.913 0.506 1.415 0.827 1.506 0.919s0.137 0.368 0.137 0.781c0 0.276-0.046 0.506-0.091 0.597-0.091 0.092-0.183 0.138-0.365 0.138s-0.274-0.046-0.319-0.184c-0.046-0.138-0.091-0.414-0.091-0.873v-0.552h-2.282v0.414c0 0.689 0.091 1.241 0.274 1.608s0.502 0.643 0.958 0.827c0.456 0.184 1.050 0.322 1.689 0.322 0.593 0 1.095-0.092 1.506-0.276s0.73-0.46 0.913-0.827c0.183-0.368 0.274-0.873 0.274-1.562 0-0.643-0.137-1.103-0.365-1.425-0.274-0.368-0.776-0.735-1.506-1.103z"></path><path d="M62.673 21.245c-0.274-0.23-0.639-0.322-1.095-0.322-0.319 0-0.639 0.092-0.913 0.23-0.274 0.184-0.502 0.414-0.73 0.735-0.41-0.643-0.958-0.965-1.643-0.965-0.365 0-0.685 0.092-0.958 0.23-0.274 0.184-0.502 0.414-0.73 0.735l0.046-0.827h-2.556v8.548h2.556v-5.928c0-0.414 0-0.689 0-0.827s0.046-0.23 0.137-0.322c0.092-0.092 0.183-0.138 0.274-0.138 0.182 0 0.274 0.092 0.319 0.23s0.045 0.689 0.045 1.517v5.423h2.51v-5.515c0-0.735 0.046-1.195 0.091-1.379s0.183-0.276 0.365-0.276 0.274 0.092 0.365 0.276c0.046 0.184 0.091 0.643 0.091 1.333v5.561h2.51v-6.020c0-0.689-0.046-1.195-0.137-1.517s-0.274-0.597-0.548-0.781z"></path><path d="M69.291 21.383c-0.456-0.322-1.095-0.46-1.962-0.46-0.73 0-1.324 0.138-1.78 0.414s-0.776 0.597-0.913 0.965c-0.137 0.368-0.228 0.873-0.228 1.517v0.551h2.419v-0.873c0-0.46 0-0.781 0.046-0.873s0.137-0.184 0.319-0.184c0.137 0 0.274 0.046 0.319 0.184s0.091 0.414 0.091 0.873c0 0.368-0.045 0.597-0.091 0.689s-0.502 0.322-1.369 0.689c-0.776 0.322-1.278 0.597-1.506 0.827-0.182 0.23-0.319 0.689-0.319 1.287v0.689c0 0.873 0.183 1.425 0.548 1.654s0.776 0.368 1.233 0.368c0.365 0 0.639-0.092 0.913-0.23 0.228-0.138 0.456-0.368 0.593-0.689v0.781h2.51v-4.274c0-1.425-0.046-2.344-0.137-2.803 0-0.414-0.274-0.827-0.685-1.103zM67.602 27.311c0 0.414-0.045 0.689-0.091 0.781s-0.137 0.138-0.319 0.138c-0.183 0-0.274-0.046-0.365-0.184s-0.091-0.414-0.091-0.873c0-0.368 0.045-0.689 0.091-0.873s0.319-0.46 0.73-0.781v1.792h0.045z"></path><path d="M73.855 22.165l0.092-1.103h-2.601v8.548h2.601v-3.355c0-0.827 0.045-1.379 0.091-1.608s0.183-0.414 0.411-0.551c0.228-0.138 0.547-0.184 1.049-0.184v-2.987c-0.73 0.046-1.278 0.46-1.643 1.241z"></path><path d="M79.241 27.174v-4.55h0.684v-1.379h-0.684v-1.333h-2.602v1.333h-0.547v1.379h0.547v4.32c0 0.827 0.046 1.379 0.092 1.608s0.183 0.414 0.365 0.597c0.182 0.184 0.41 0.276 0.684 0.322s0.685 0.092 1.278 0.092h1.049v-1.379c-0.41 0-0.639-0.046-0.73-0.092s-0.137-0.322-0.137-0.919z"></path><path d="M83.257 22.165l0.092-1.103h-2.602v8.548h2.602v-3.355c0-0.827 0.045-1.379 0.091-1.608s0.183-0.414 0.41-0.551c0.228-0.138 0.548-0.184 1.050-0.184v-2.987c-0.73 0.046-1.278 0.46-1.643 1.241z"></path><path d="M90.97 21.843c-0.228-0.276-0.548-0.506-0.958-0.689s-0.913-0.276-1.506-0.276c-0.685 0-1.278 0.138-1.689 0.414-0.456 0.276-0.73 0.643-0.913 1.057-0.183 0.46-0.274 1.057-0.274 1.838v2.206c0 0.735 0.045 1.287 0.137 1.654s0.228 0.689 0.456 0.919c0.228 0.276 0.548 0.46 0.913 0.551s0.867 0.184 1.461 0.184c0.502 0 0.958-0.092 1.369-0.23s0.73-0.368 0.958-0.689c0.274-0.322 0.411-0.643 0.502-1.011s0.137-0.919 0.137-1.7v-2.114c0-0.597-0.046-1.057-0.137-1.333-0.045-0.23-0.228-0.506-0.456-0.781zM89.007 27.357c0 0.368-0.046 0.597-0.091 0.735-0.046 0.092-0.137 0.184-0.319 0.184-0.137 0-0.228-0.046-0.319-0.184-0.046-0.138-0.092-0.368-0.092-0.781v-3.86c0-0.46 0.046-0.735 0.092-0.827s0.137-0.184 0.319-0.184c0.182 0 0.274 0.046 0.319 0.184 0.045 0.092 0.091 0.368 0.091 0.827v3.906z"></path><path d="M97.998 21.2c-0.274-0.23-0.639-0.322-1.095-0.322-0.365 0-0.685 0.092-0.958 0.23s-0.502 0.414-0.685 0.689l0.046-0.781h-2.601v8.548h2.601v-5.744c0-0.643 0.045-1.057 0.091-1.195s0.183-0.23 0.365-0.23 0.274 0.046 0.319 0.184c0.046 0.138 0.046 0.506 0.046 1.057v5.928h2.601v-5.974c0-0.735-0.046-1.287-0.137-1.608-0.137-0.276-0.319-0.551-0.594-0.781z"></path><path d="M102.425 21.062h-2.647v8.548h2.647v-8.548z"></path><path d="M102.425 19.177h-2.647v1.379h2.647v-1.379z"></path><path d="M107.035 27.082c0 0.46-0.045 0.735-0.091 0.919-0.046 0.138-0.183 0.23-0.365 0.23-0.137 0-0.274-0.092-0.319-0.23-0.091-0.138-0.137-0.368-0.137-0.689v-4.044c0-0.368 0.046-0.597 0.091-0.735 0.046-0.092 0.137-0.138 0.319-0.138 0.137 0 0.274 0.046 0.319 0.184s0.092 0.368 0.092 0.689v0.965h2.419c0-0.781-0.091-1.425-0.228-1.838-0.137-0.46-0.457-0.781-0.959-1.103-0.456-0.276-1.049-0.414-1.734-0.414s-1.233 0.138-1.734 0.414c-0.457 0.276-0.776 0.597-0.913 1.011-0.137 0.368-0.228 0.919-0.228 1.654v2.436c0 0.827 0.092 1.471 0.274 1.93s0.456 0.827 0.913 1.057c0.411 0.23 1.004 0.368 1.735 0.368 0.593 0 1.049-0.092 1.46-0.276 0.365-0.184 0.685-0.46 0.958-0.827 0.228-0.368 0.365-0.689 0.41-1.057 0.046-0.322 0.092-0.873 0.092-1.517h-2.282v1.011h-0.092z"></path><path d="M88.642 13.433c0.639-0.781 0.548-1.884-0.228-2.528s-1.871-0.551-2.51 0.23l-2.054 2.482c-0.639 0.781-0.547 1.884 0.228 2.527s1.871 0.552 2.51-0.23l2.054-2.482z"></path><path d="M80.062 6.264c0.639-0.781 0.547-1.884-0.228-2.527s-1.871-0.551-2.51 0.23l-8.033 9.651c-0.639 0.781-0.548 1.884 0.228 2.527s1.871 0.552 2.51-0.23l8.033-9.651z"></path><path d="M79.103 16.144l5.431-6.158c0.639-0.781 0.548-1.884-0.228-2.527s-1.871-0.551-2.51 0.23l-5.431 6.158c-0.639 0.781-0.548 1.884 0.228 2.528s1.917 0.551 2.51-0.23z"></path></svg>