<svg xmlns="http://www.w3.org/2000/svg" width="145" height="32" viewBox="0 0 145 32"><path d="M5.158 28.473c2.52 2.229 5.713 2.093 6.723 0.273-1.602-1.253-4.92-0.877-6.723-0.273z"></path><path d="M8.033 26.491c-1.119-1.577-3.986-2.080-5.892-1.99 1.3 2.142 4.284 3.556 5.892 1.99z"></path><path d="M5.108 23.181c-0.618-1.745-2.891-2.876-4.702-3.245 0.712 2.407 2.979 4.113 4.702 3.245z"></path><path d="M3.321 19.148c0.026-1.661-1.907-3.368-3.321-4.084 0.090 2.239 1.474 4.403 3.321 4.084z"></path><path d="M2.841 14.771c0.169-0.622 0.089-1.22-0.148-1.8-0.034-0.1-0.095-0.208-0.121-0.336-0.332-0.788-0.927-1.616-1.611-2.226-0.478 1.873 0.179 4.144 1.88 4.362z"></path><path d="M3.709 10.456c0.733-1.136 0.176-3.107-0.567-4.279-0.877 1.552-0.813 3.663 0.567 4.279z"></path><path d="M5.84 6.635c0.947-0.805 0.927-2.631 0.545-3.796-1.088 1.101-1.579 2.909-0.545 3.796z"></path><path d="M10.354 0.516c-1.561 0.942-1.852 2.35-1.327 3.099 1.004-0.456 1.418-1.982 1.327-3.099z"></path><path d="M11.771 27.473c1.219-1.247 0.952-3.504 0.359-5.12-2.15 2.664-1.554 4.493-0.359 5.12z"></path><path d="M8.355 25.304c1.458-0.788 1.854-3.138 1.654-4.527-0.411 0.283-0.801 0.602-1.142 0.965-0.98 1.039-1.508 2.534-0.512 3.562z"></path><path d="M8.412 18.616c-2.776 0.947-3.2 2.622-2.652 3.62 1.484-0.326 2.374-2.148 2.652-3.62z"></path><path d="M7.463 15.962c-2.646 0.133-3.512 1.536-3.298 2.535 1.462 0.092 2.821-1.45 3.298-2.535z"></path><path d="M7.373 13.056c-1.485-0.341-3.352-0.058-3.538 1.408 1.185 0.442 2.774-0.493 3.538-1.408z"></path><path d="M4.667 10.504c0.91 0.671 2.531 0.291 3.467-0.365-1.827-0.98-3.124-0.452-3.467 0.365z"></path><path d="M6.657 6.977c0.63 0.808 2.136 0.851 3.101 0.536-1.275-1.225-2.526-1.2-3.101-0.536z"></path><path d="M9.598 4.194c0.373 0.859 1.581 1.217 2.562 1.179-0.86-1.416-2.036-1.552-2.562-1.179z"></path><path d="M11.813 27.879c-9.838-3.998-11.709-18.671-1.294-24.618l-0.062-0.108c-10.908 6.086-8.802 21.793 2.137 25.423l0.107-0.396c-0.311-0.084-0.586-0.189-0.889-0.301z"></path><path d="M139.358 28.473c-2.52 2.229-5.713 2.093-6.723 0.273 1.602-1.253 4.92-0.877 6.723-0.273z"></path><path d="M136.484 26.491c1.119-1.577 3.987-2.080 5.893-1.99-1.3 2.142-4.284 3.556-5.893 1.99z"></path><path d="M139.408 23.181c0.618-1.745 2.89-2.876 4.702-3.245-0.712 2.407-2.979 4.113-4.702 3.245z"></path><path d="M141.195 19.148c-0.026-1.661 1.907-3.368 3.321-4.084-0.090 2.239-1.474 4.403-3.321 4.084z"></path><path d="M141.675 14.771c-0.169-0.622-0.088-1.22 0.149-1.8 0.034-0.1 0.095-0.208 0.121-0.336 0.332-0.788 0.927-1.616 1.611-2.226 0.478 1.873-0.18 4.144-1.88 4.362z"></path><path d="M140.807 10.456c-0.733-1.136-0.176-3.107 0.568-4.279 0.876 1.552 0.812 3.663-0.568 4.279z"></path><path d="M138.677 6.635c-0.947-0.805-0.927-2.631-0.546-3.796 1.088 1.101 1.579 2.909 0.546 3.796z"></path><path d="M134.163 0.516c1.561 0.942 1.852 2.35 1.327 3.099-1.004-0.456-1.418-1.982-1.327-3.099z"></path><path d="M132.745 27.473c-1.219-1.247-0.951-3.504-0.359-5.12 2.15 2.664 1.554 4.493 0.359 5.12z"></path><path d="M136.162 25.304c-1.459-0.788-1.854-3.138-1.655-4.527 0.411 0.283 0.801 0.602 1.142 0.965 0.98 1.039 1.508 2.534 0.513 3.562z"></path><path d="M136.105 18.616c2.776 0.947 3.2 2.622 2.652 3.62-1.484-0.326-2.374-2.148-2.652-3.62z"></path><path d="M137.053 15.962c2.646 0.133 3.512 1.536 3.298 2.535-1.462 0.092-2.822-1.45-3.298-2.535z"></path><path d="M137.143 13.056c1.485-0.341 3.353-0.058 3.539 1.408-1.185 0.442-2.774-0.493-3.539-1.408z"></path><path d="M139.849 10.504c-0.91 0.671-2.531 0.291-3.467-0.365 1.827-0.98 3.124-0.452 3.467 0.365z"></path><path d="M137.859 6.977c-0.63 0.808-2.135 0.851-3.101 0.536 1.275-1.225 2.526-1.2 3.101-0.536z"></path><path d="M134.919 4.194c-0.374 0.859-1.581 1.217-2.563 1.179 0.86-1.416 2.036-1.552 2.563-1.179z"></path><path d="M132.703 27.879c9.837-3.998 11.709-18.671 1.294-24.618l0.062-0.108c10.908 6.086 8.802 21.793-2.138 25.423l-0.107-0.396c0.311-0.084 0.586-0.189 0.889-0.301z"></path><path d="M46.087 22.765h-1.804v-0.924c0-0.369-0.231-0.6-0.601-0.6h-0.694c-0.37 0-0.601 0.231-0.601 0.646v4.987c0 2.309 1.665 2.863 3.793 2.355 0.324-0.046 0.509-0.323 0.509-0.646v-0.323c0-0.323-0.139-0.462-0.555-0.462-0.231 0-0.462 0.092-0.832 0.092-0.74 0-1.018-0.277-1.018-0.97v-2.586h1.804c0.37 0 0.601-0.231 0.601-0.6v-0.277c0-0.462-0.231-0.693-0.601-0.693z"></path><path d="M50.851 22.626c-2.22 0-3.376 1.247-3.376 3.371 0 2.263 1.341 3.371 3.376 3.371 0.601 0 1.295-0.092 2.035-0.277 0.37-0.092 0.509-0.323 0.509-0.693v-0.185c0-0.416-0.278-0.6-0.694-0.508-0.555 0.139-1.11 0.231-1.526 0.231-0.879 0-1.48-0.277-1.711-1.016l2.821-0.277c1.203-0.139 1.573-0.508 1.573-1.431 0-1.709-1.11-2.586-3.006-2.586zM51.638 25.351l-2.266 0.231c0.093-1.108 0.601-1.524 1.526-1.524 0.833 0 1.249 0.323 1.249 0.97-0.046 0.185-0.092 0.277-0.508 0.323z"></path><path d="M59.778 22.857c-0.555-0.139-1.064-0.185-1.573-0.185-1.942 0-3.33 1.108-3.33 3.371s1.388 3.371 3.33 3.371c0.462 0 1.018-0.046 1.573-0.185 0.37-0.092 0.509-0.323 0.509-0.693v-0.231c0-0.416-0.231-0.6-0.648-0.554-0.416 0.092-0.786 0.092-1.11 0.092-1.249 0-1.758-0.554-1.758-1.847s0.509-1.847 1.758-1.847c0.277 0 0.601 0.046 0.971 0.092 0.509 0.092 0.787-0.092 0.787-0.508v-0.231c0-0.323-0.139-0.6-0.509-0.646z"></path><path d="M64.171 22.626c-0.278 0-0.601 0-0.925 0.046v-2.078c0-0.369-0.231-0.6-0.601-0.6h-0.601c-0.37 0-0.601 0.231-0.601 0.6v8.035c0 0.369 0.231 0.6 0.601 0.6h0.601c0.37 0 0.601-0.231 0.601-0.6v-4.433c0.37-0.046 0.694-0.046 0.971-0.046 1.295 0 1.803 0.416 1.803 1.847v2.632c0 0.369 0.232 0.6 0.601 0.6h0.601c0.37 0 0.601-0.231 0.601-0.6v-2.632c0.046-2.494-1.295-3.371-3.654-3.371z"></path><path d="M72.82 22.626c-2.312 0-3.7 0.877-3.7 3.371s1.388 3.371 3.7 3.371c0.278 0 0.601 0 0.925-0.046v0.139c0 0.739-0.601 1.062-1.526 1.062-0.462 0-0.925-0.092-1.434-0.185-0.416-0.092-0.694 0.092-0.694 0.508v0.231c0 0.369 0.185 0.6 0.509 0.693 0.601 0.139 1.249 0.231 1.804 0.231 1.804 0 3.145-0.785 3.145-2.54v-4.756c0.046-1.478-0.786-2.078-2.729-2.078zM73.745 27.752c-0.37 0.046-0.74 0.092-1.017 0.092-1.249 0-1.757-0.462-1.757-1.801s0.509-1.847 1.711-1.847c0.971 0 1.064 0.277 1.064 0.831v2.724z"></path><path d="M80.359 22.719c-2.821 0.046-3.33 0.462-3.33 1.986v3.971c0 0.369 0.231 0.6 0.601 0.6h0.647c0.37 0 0.601-0.231 0.601-0.6v-3.74c0-0.508 0.046-0.6 1.434-0.646 0.417 0 0.648-0.231 0.648-0.6v-0.369c0.046-0.416-0.185-0.6-0.601-0.6z"></path><path d="M84.984 22.626c-2.174 0-3.377 1.247-3.377 3.371s1.203 3.371 3.377 3.371c2.174 0 3.376-1.247 3.376-3.371s-1.202-3.371-3.376-3.371zM84.984 27.844c-1.018 0-1.48-0.554-1.48-1.801 0-1.293 0.509-1.847 1.48-1.847s1.48 0.554 1.48 1.847c0 1.247-0.462 1.801-1.48 1.801z"></path><path d="M95.483 22.765h-0.601c-0.37 0-0.601 0.231-0.601 0.6v3.001c0 1.154-0.417 1.478-1.434 1.478s-1.434-0.323-1.434-1.478v-3.001c0-0.369-0.231-0.6-0.601-0.6h-0.601c-0.37 0-0.601 0.231-0.601 0.6v2.955c0 2.355 1.203 3.048 3.284 3.048s3.284-0.693 3.284-3.048v-2.955c-0.046-0.369-0.278-0.6-0.694-0.6z"></path><path d="M100.247 22.626c-1.942 0-2.775 0.6-2.775 2.078v6.603c0 0.369 0.231 0.6 0.601 0.6h0.601c0.37 0 0.601-0.231 0.601-0.6v-1.939c0.324 0.046 0.648 0.046 0.925 0.046 2.312 0 3.7-0.831 3.7-3.371s-1.295-3.417-3.654-3.417zM100.386 27.844c-0.278 0-0.647-0.046-1.017-0.092v-2.678c0-0.6 0.092-0.877 1.064-0.877 1.203 0 1.757 0.462 1.757 1.847s-0.601 1.801-1.804 1.801z"></path><path d="M72.358 0h-7.955v7.942c0 1.385 1.11 2.54 2.544 2.54h7.955v-7.942c0-1.431-1.157-2.54-2.544-2.54z"></path><path d="M81.793 17.362v-4.387c0-1.385-1.11-2.54-2.544-2.54h-4.394v4.387c0 1.385 1.11 2.54 2.544 2.54h4.394z"></path><path d="M73.699 14.499v-2.863h-2.868c-0.925 0-1.665 0.739-1.665 1.662v2.863h2.868c0.925 0 1.665-0.739 1.665-1.662z"></path><path d="M80.544 7.665v-2.863h-2.868c-0.925 0-1.665 0.739-1.665 1.662v2.863h2.868c0.925 0 1.665-0.739 1.665-1.662z"></path></svg>