<svg xmlns="http://www.w3.org/2000/svg" width="130" height="32" viewBox="0 0 130 32"><path d="M4.634 27.44c2.264 2.003 5.133 1.881 6.041 0.246-1.439-1.126-4.421-0.788-6.041-0.246z"></path><path d="M7.218 25.659c-1.006-1.417-3.582-1.869-5.295-1.788 1.168 1.924 3.849 3.195 5.295 1.788z"></path><path d="M4.59 22.685c-0.556-1.568-2.597-2.584-4.225-2.916 0.639 2.163 2.677 3.696 4.225 2.916z"></path><path d="M2.984 19.061c0.024-1.493-1.714-3.026-2.984-3.67 0.081 2.012 1.325 3.957 2.984 3.67z"></path><path d="M2.553 15.128c0.152-0.559 0.080-1.096-0.133-1.617-0.030-0.090-0.086-0.187-0.109-0.302-0.299-0.708-0.833-1.452-1.447-2-0.43 1.683 0.161 3.723 1.689 3.919z"></path><path d="M3.333 11.251c0.659-1.021 0.158-2.792-0.51-3.845-0.788 1.395-0.73 3.291 0.51 3.845z"></path><path d="M5.247 7.817c0.851-0.724 0.833-2.364 0.49-3.411-0.978 0.989-1.419 2.614-0.49 3.411z"></path><path d="M9.303 2.319c-1.402 0.847-1.664 2.112-1.193 2.784 0.902-0.41 1.274-1.781 1.193-2.784z"></path><path d="M10.577 26.541c1.095-1.121 0.855-3.148 0.323-4.601-1.932 2.393-1.396 4.038-0.323 4.601z"></path><path d="M7.507 24.592c1.31-0.708 1.666-2.82 1.487-4.068-0.369 0.254-0.72 0.541-1.026 0.867-0.881 0.934-1.355 2.277-0.46 3.201z"></path><path d="M7.558 18.582c-2.494 0.851-2.876 2.356-2.383 3.253 1.334-0.293 2.133-1.93 2.383-3.253z"></path><path d="M6.706 16.198c-2.377 0.119-3.156 1.381-2.963 2.278 1.313 0.083 2.535-1.303 2.963-2.278z"></path><path d="M6.625 13.587c-1.334-0.307-3.012-0.052-3.179 1.265 1.065 0.397 2.492-0.443 3.179-1.265z"></path><path d="M4.194 11.293c0.818 0.603 2.274 0.261 3.116-0.328-1.642-0.881-2.807-0.406-3.116 0.328z"></path><path d="M5.981 8.125c0.566 0.726 1.919 0.765 2.787 0.482-1.146-1.101-2.27-1.078-2.787-0.482z"></path><path d="M8.624 5.624c0.336 0.772 1.421 1.093 2.302 1.060-0.772-1.272-1.83-1.395-2.302-1.060z"></path><path d="M10.614 26.905c-8.84-3.593-10.521-16.777-1.163-22.121l-0.056-0.097c-9.801 5.469-7.909 19.582 1.921 22.844l0.097-0.355c-0.279-0.076-0.526-0.17-0.799-0.271z"></path><path d="M125.221 27.44c-2.264 2.003-5.133 1.881-6.041 0.246 1.439-1.126 4.421-0.788 6.041-0.246z"></path><path d="M122.637 25.659c1.005-1.417 3.582-1.869 5.295-1.788-1.168 1.924-3.849 3.195-5.295 1.788z"></path><path d="M125.265 22.685c0.556-1.568 2.597-2.584 4.225-2.916-0.64 2.163-2.677 3.696-4.225 2.916z"></path><path d="M126.871 19.061c-0.024-1.493 1.714-3.026 2.984-3.67-0.081 2.012-1.325 3.957-2.984 3.67z"></path><path d="M127.302 15.128c-0.152-0.559-0.079-1.096 0.134-1.617 0.030-0.090 0.085-0.187 0.109-0.302 0.299-0.708 0.833-1.452 1.447-2 0.429 1.683-0.161 3.723-1.689 3.919z"></path><path d="M126.522 11.251c-0.659-1.021-0.158-2.792 0.51-3.845 0.787 1.395 0.73 3.291-0.51 3.845z"></path><path d="M124.608 7.817c-0.851-0.724-0.833-2.364-0.49-3.411 0.978 0.989 1.419 2.614 0.49 3.411z"></path><path d="M120.552 2.319c1.402 0.847 1.664 2.112 1.192 2.784-0.902-0.41-1.274-1.781-1.192-2.784z"></path><path d="M119.278 26.541c-1.095-1.121-0.855-3.148-0.322-4.601 1.932 2.393 1.396 4.038 0.322 4.601z"></path><path d="M122.348 24.592c-1.311-0.708-1.666-2.82-1.487-4.068 0.369 0.254 0.72 0.541 1.026 0.867 0.881 0.934 1.355 2.277 0.461 3.201z"></path><path d="M122.297 18.582c2.494 0.851 2.875 2.356 2.383 3.253-1.334-0.293-2.133-1.93-2.383-3.253z"></path><path d="M123.149 16.198c2.377 0.119 3.156 1.381 2.963 2.278-1.313 0.083-2.535-1.303-2.963-2.278z"></path><path d="M123.23 13.587c1.335-0.307 3.013-0.052 3.18 1.265-1.065 0.397-2.492-0.443-3.18-1.265z"></path><path d="M125.661 11.293c-0.818 0.603-2.274 0.261-3.116-0.328 1.642-0.881 2.807-0.406 3.116 0.328z"></path><path d="M123.873 8.125c-0.566 0.726-1.919 0.765-2.786 0.482 1.146-1.101 2.27-1.078 2.786-0.482z"></path><path d="M121.231 5.624c-0.336 0.772-1.421 1.093-2.303 1.060 0.773-1.272 1.83-1.395 2.303-1.060z"></path><path d="M119.241 26.905c8.839-3.593 10.521-16.777 1.163-22.121l0.056-0.097c9.801 5.469 7.909 19.582-1.921 22.844l-0.096-0.355c0.28-0.076 0.526-0.17 0.799-0.271z"></path><path d="M48.457 27.007c0-0.034-0.033-0.068-0.101-0.068h-3.010c-0.271 0-0.507 0.034-0.71 0.068s-0.372 0.102-0.507 0.204c-0.135 0.102-0.271 0.238-0.406 0.408-0.101 0.17-0.237 0.408-0.338 0.679l-0.947 2.276c-0.101 0.306-0.169 0.543-0.169 0.713 0 0.476 0.338 0.679 1.015 0.679h2.943c0.101 0 0.169-0.034 0.203-0.136l0.474-1.155c0.034-0.102 0-0.136-0.068-0.136h-2.503c-0.101 0-0.135-0.034-0.135-0.102 0-0.034 0-0.068 0.034-0.136l0.744-1.732c0.068-0.136 0.135-0.204 0.271-0.204h2.503c0.102 0 0.169-0.034 0.203-0.136l0.474-1.121c0.033-0.068 0.033-0.102 0.033-0.102z"></path><path d="M54.072 26.973c0-0.034-0.034-0.034-0.068-0.034h-1.725c-0.034 0-0.102 0-0.135 0.034s-0.068 0.068-0.135 0.102l-1.217 1.291c-0.102 0.102-0.203 0.238-0.271 0.34s-0.135 0.238-0.169 0.374c0.067-0.136 0.101-0.238 0.101-0.374s0.034-0.238 0.034-0.34l-0.102-1.291c0-0.102-0.067-0.136-0.135-0.136h-1.556c-0.102 0-0.135 0.034-0.135 0.136l0.541 3.091-0.71 1.698c-0.034 0.102 0 0.136 0.067 0.136h1.454c0.102 0 0.169-0.034 0.203-0.136l0.711-1.698 3.145-3.091c0.102-0.034 0.102-0.068 0.102-0.102z"></path><path d="M57.894 29.894c0-0.17-0.068-0.306-0.169-0.408-0.135-0.102-0.304-0.136-0.507-0.136 0.305 0 0.541-0.068 0.778-0.204s0.44-0.408 0.575-0.781l0.237-0.509c0.068-0.17 0.102-0.306 0.102-0.408 0-0.17-0.068-0.272-0.203-0.374-0.135-0.068-0.338-0.102-0.608-0.102h-3.585c-0.102 0-0.169 0.034-0.203 0.136l-1.995 4.755c-0.034 0.102 0 0.136 0.067 0.136h3.585c0.203 0 0.372 0 0.541-0.034s0.304-0.068 0.406-0.17 0.237-0.204 0.338-0.34c0.102-0.136 0.203-0.34 0.305-0.611l0.169-0.442c0.135-0.204 0.169-0.374 0.169-0.509zM56.169 30.234l-0.034 0.136c-0.034 0.068-0.068 0.136-0.102 0.17s-0.102 0.034-0.169 0.034h-1.319l0.203-0.509h1.319c0.102 0 0.135 0.034 0.135 0.102 0 0 0 0.034-0.034 0.068zM56.879 28.535l-0.034 0.102c-0.068 0.136-0.135 0.204-0.27 0.204h-1.319l0.203-0.509h1.319c0.102 0 0.135 0.034 0.135 0.102 0 0.034 0 0.068-0.034 0.102z"></path><path d="M62.291 30.573h-2.435l0.203-0.476h2.164c0.102 0 0.169-0.034 0.203-0.136l0.406-0.951c0-0.034 0.034-0.068 0.034-0.068 0-0.034-0.034-0.068-0.102-0.068h-2.165l0.203-0.509h2.368c0.102 0 0.169-0.034 0.203-0.136l0.474-1.121c0-0.034 0.034-0.068 0.034-0.068 0-0.034-0.034-0.068-0.102-0.068h-3.923c-0.102 0-0.169 0.034-0.203 0.136l-1.995 4.755c-0.034 0.102 0 0.136 0.067 0.136h3.957c0.102 0 0.169-0.034 0.203-0.136l0.474-1.155c0.034-0.102 0-0.136-0.068-0.136z"></path><path d="M67.973 26.939h-3.382c-0.102 0-0.169 0.034-0.203 0.136l-1.996 4.755c-0.034 0.102 0 0.136 0.068 0.136h1.387c0.102 0 0.169-0.034 0.203-0.136l0.643-1.528h0.879l0.034 1.562c0 0.102 0.034 0.136 0.135 0.136h1.285c0.102 0 0.135-0.034 0.135-0.136l-0.068-1.596c0.271-0.068 0.507-0.17 0.677-0.306s0.338-0.34 0.44-0.611l0.541-1.325c0.101-0.204 0.135-0.374 0.135-0.509 0.034-0.408-0.304-0.577-0.913-0.577zM66.891 28.569l-0.135 0.306c-0.068 0.136-0.135 0.204-0.271 0.204h-1.285l0.304-0.713h1.286c0.102 0 0.135 0.034 0.135 0.102 0 0-0.033 0.034-0.033 0.102z"></path><path d="M73.722 28.196l0.474-1.121c0-0.034 0.033-0.068 0.033-0.068 0-0.034-0.034-0.068-0.101-0.068h-4.465c-0.102 0-0.169 0.034-0.203 0.136l-0.474 1.121c-0.034 0.102 0 0.136 0.068 0.136h1.387l-1.454 3.498c-0.034 0.102 0 0.136 0.068 0.136h1.488c0.102 0 0.169-0.034 0.203-0.136l1.488-3.498h1.319c0.068 0.034 0.135-0.034 0.169-0.136z"></path><path d="M77.139 30.064c0.102 0 0.169-0.034 0.203-0.136l0.406-0.951c0-0.034 0.034-0.068 0.034-0.068 0-0.034-0.034-0.068-0.102-0.068h-2.164l0.203-0.509h2.368c0.101 0 0.169-0.034 0.203-0.136l0.474-1.121c0-0.034 0.034-0.068 0.034-0.068 0-0.034-0.034-0.068-0.102-0.068h-3.957c-0.101 0-0.169 0.034-0.203 0.136l-1.996 4.755c-0.034 0.102 0 0.136 0.068 0.136h3.957c0.101 0 0.169-0.034 0.203-0.136l0.474-1.155c0.034-0.102 0-0.136-0.068-0.136h-2.435l0.203-0.476h2.198z"></path><path d="M82.144 30.573h-2.469c-0.102 0-0.135-0.034-0.135-0.102 0-0.034 0-0.068 0.033-0.136l0.744-1.766c0.068-0.136 0.135-0.204 0.27-0.204h2.503c0.102 0 0.169-0.034 0.203-0.136l0.474-1.121c0-0.034 0.034-0.068 0.034-0.068 0-0.034-0.034-0.068-0.102-0.068h-2.976c-0.27 0-0.507 0.034-0.71 0.068s-0.372 0.102-0.507 0.204c-0.135 0.102-0.271 0.238-0.406 0.408-0.101 0.17-0.237 0.408-0.338 0.679l-0.947 2.276c-0.102 0.272-0.169 0.509-0.169 0.713 0 0.476 0.339 0.679 1.015 0.679h2.943c0.102 0 0.169-0.034 0.203-0.136l0.474-1.155c-0.034-0.102-0.034-0.136-0.135-0.136z"></path><path d="M89.078 26.939h-1.421c-0.102 0-0.169 0.034-0.203 0.136l-0.71 1.698h-1.59l0.71-1.698c0.034-0.102 0-0.136-0.067-0.136h-1.421c-0.102 0-0.169 0.034-0.203 0.136l-1.996 4.755c-0.034 0.102 0 0.136 0.068 0.136h1.421c0.102 0 0.169-0.034 0.203-0.136l0.744-1.732h1.59l-0.744 1.732c-0.034 0.102 0 0.136 0.068 0.136h1.421c0.102 0 0.169-0.034 0.203-0.136l1.996-4.755c0-0.034 0.034-0.068 0.034-0.068 0-0.034-0.034-0.068-0.102-0.068z"></path><path d="M57.183 17.191c-0.101-0.204-0.203-0.408-0.304-0.577-0.102-0.204-0.304-0.272-0.507-0.204l-1.217 0.509c-0.203 0.102-0.305 0.34-0.203 0.509 0.102 0.204 0.304 0.306 0.507 0.204l0.879-0.374c0.068 0.102 0.102 0.204 0.169 0.306 2.097 3.634 5.953 5.74 9.977 5.74 1.353 0 2.706-0.238 4.025-0.747 0.338 0.374 0.812 0.611 1.319 0.611 0.305 0 0.609-0.068 0.88-0.238 0.406-0.238 0.71-0.611 0.812-1.087 0.135-0.476 0.068-0.951-0.169-1.359s-0.609-0.713-1.082-0.815c-0.474-0.136-0.947-0.068-1.353 0.17-0.71 0.408-1.049 1.257-0.812 2.038-4.837 1.766-10.35-0.204-12.921-4.687zM71.321 20.554c0.135-0.102 0.305-0.136 0.474-0.136 0.102 0 0.169 0 0.271 0.034 0.237 0.068 0.474 0.238 0.609 0.442 0.135 0.238 0.169 0.476 0.101 0.747-0.067 0.238-0.237 0.476-0.44 0.611-0.474 0.272-1.082 0.102-1.319-0.374-0.338-0.476-0.169-1.053 0.304-1.325z"></path><path d="M70.306 4.42c0.271 0.17 0.575 0.238 0.88 0.238 0.169 0 0.304-0.034 0.474-0.068 0.304-0.068 0.575-0.238 0.812-0.476 3.923 3.295 4.972 9.069 2.401 13.552-0.102 0.204-0.237 0.374-0.338 0.577-0.102 0.17-0.068 0.408 0.102 0.543l1.048 0.781c0.068 0.068 0.169 0.068 0.237 0.068 0.135 0 0.237-0.068 0.304-0.17 0.135-0.17 0.102-0.442-0.068-0.543l-0.778-0.577c0.068-0.102 0.102-0.204 0.169-0.306 2.807-4.857 1.623-11.141-2.672-14.639 0.271-0.781-0.068-1.664-0.812-2.106-0.845-0.476-1.928-0.204-2.435 0.645-0.474 0.883-0.169 1.97 0.676 2.479zM70.34 2.382c0.169-0.306 0.507-0.476 0.846-0.476 0.169 0 0.338 0.034 0.474 0.136 0.474 0.272 0.642 0.883 0.372 1.325-0.135 0.238-0.338 0.374-0.609 0.442-0.237 0.068-0.507 0.034-0.744-0.102-0.44-0.272-0.609-0.849-0.339-1.325z"></path><path d="M55.526 14.44c0.981 0 1.759-0.815 1.759-1.766 0-0.815-0.575-1.528-1.319-1.732 0.845-5.095 5.31-8.865 10.485-8.865 0.237 0 0.44 0 0.677 0.034 0.203 0 0.406-0.136 0.406-0.34l0.169-1.325c0.034-0.204-0.135-0.408-0.338-0.442s-0.406 0.136-0.44 0.34l-0.101 0.951c-0.102 0-0.237 0-0.339 0-5.614-0.034-10.451 4.11-11.33 9.612-0.812 0.17-1.421 0.883-1.421 1.732 0 1.019 0.812 1.8 1.792 1.8zM55.526 11.689c0.541 0 0.981 0.442 0.981 0.985s-0.44 0.985-0.981 0.985c-0.541 0-0.981-0.442-0.981-0.985s0.44-0.985 0.981-0.985z"></path><path d="M66.18 4.522c-1.285 0-2.537 0.306-3.653 0.917-0.271-0.17-0.609-0.272-0.947-0.272-0.981 0-1.792 0.815-1.792 1.8s0.812 1.8 1.792 1.8 1.793-0.815 1.793-1.8c0-0.238-0.034-0.442-0.135-0.645 0.913-0.442 1.928-0.679 2.943-0.679 3.686 0 6.697 3.023 6.697 6.725s-3.010 6.725-6.697 6.725c-3.687 0-6.697-3.023-6.697-6.725 0-0.645 0.102-1.325 0.27-1.936 0.102-0.272-0.068-0.577-0.372-0.679-0.27-0.068-0.575 0.068-0.677 0.374-0.203 0.713-0.338 1.495-0.338 2.242 0 4.314 3.484 7.812 7.779 7.812s7.779-3.498 7.779-7.812c0-4.348-3.484-7.846-7.745-7.846zM61.547 7.647c-0.406 0-0.711-0.34-0.711-0.713 0-0.408 0.338-0.713 0.711-0.713 0.406 0 0.71 0.34 0.71 0.713 0.034 0.374-0.304 0.713-0.71 0.713z"></path><path d="M70.442 12.3c0-2.378-1.928-4.314-4.295-4.314s-4.295 1.936-4.295 4.314c0 2.378 1.928 4.314 4.295 4.314s4.295-1.936 4.295-4.314zM63.745 12.3c0-1.325 1.082-2.446 2.435-2.446 1.319 0 2.435 1.087 2.435 2.446 0 1.325-1.082 2.446-2.435 2.446s-2.435-1.087-2.435-2.446z"></path></svg>