<svg xmlns="http://www.w3.org/2000/svg" width="149" height="32" viewBox="0 0 149 32"><path d="M5.33 29.422c2.604 2.304 5.903 2.163 6.947 0.282-1.655-1.294-5.084-0.907-6.947-0.282z"></path><path d="M8.3 27.374c-1.156-1.63-4.119-2.15-6.089-2.056 1.343 2.213 4.426 3.675 6.089 2.056z"></path><path d="M5.278 23.954c-0.639-1.803-2.987-2.972-4.859-3.353 0.735 2.487 3.079 4.25 4.859 3.353z"></path><path d="M3.432 19.787c0.027-1.717-1.971-3.48-3.432-4.22 0.093 2.313 1.523 4.55 3.432 4.22z"></path><path d="M2.935 15.264c0.174-0.642 0.091-1.26-0.153-1.86-0.035-0.103-0.098-0.215-0.125-0.347-0.343-0.814-0.957-1.67-1.664-2.3-0.494 1.935 0.185 4.282 1.943 4.507z"></path><path d="M3.833 10.805c0.758-1.174 0.182-3.211-0.586-4.422-0.906 1.604-0.84 3.785 0.586 4.422z"></path><path d="M6.034 6.856c0.979-0.832 0.958-2.719 0.564-3.922-1.124 1.137-1.632 3.006-0.564 3.922z"></path><path d="M10.699 0.533c-1.613 0.974-1.914 2.428-1.371 3.202 1.037-0.471 1.466-2.048 1.371-3.202z"></path><path d="M12.164 28.389c1.259-1.289 0.983-3.621 0.371-5.291-2.221 2.753-1.606 4.643-0.371 5.291z"></path><path d="M8.633 26.148c1.507-0.814 1.915-3.243 1.71-4.678-0.424 0.293-0.827 0.622-1.18 0.997-1.013 1.074-1.558 2.619-0.529 3.681z"></path><path d="M8.692 19.236c-2.868 0.979-3.307 2.709-2.74 3.74 1.534-0.337 2.453-2.22 2.74-3.74z"></path><path d="M7.712 16.494c-2.734 0.137-3.629 1.588-3.408 2.619 1.51 0.096 2.915-1.499 3.408-2.619z"></path><path d="M7.618 13.491c-1.535-0.353-3.464-0.060-3.656 1.455 1.224 0.457 2.866-0.509 3.656-1.455z"></path><path d="M4.823 10.854c0.94 0.694 2.615 0.301 3.583-0.378-1.888-1.013-3.228-0.467-3.583 0.378z"></path><path d="M6.879 7.21c0.651 0.835 2.207 0.88 3.204 0.554-1.318-1.266-2.611-1.24-3.204-0.554z"></path><path d="M9.917 4.334c0.386 0.888 1.634 1.257 2.648 1.218-0.888-1.463-2.104-1.604-2.648-1.218z"></path><path d="M12.206 28.808c-10.166-4.132-12.099-19.294-1.337-25.439l-0.064-0.111c-11.271 6.289-9.095 22.52 2.209 26.27l0.111-0.409c-0.321-0.087-0.605-0.195-0.919-0.311z"></path><path d="M144.004 29.422c-2.604 2.304-5.903 2.163-6.947 0.282 1.655-1.294 5.084-0.907 6.947-0.282z"></path><path d="M141.033 27.374c1.156-1.63 4.119-2.15 6.089-2.056-1.343 2.213-4.427 3.675-6.089 2.056z"></path><path d="M144.055 23.954c0.639-1.803 2.987-2.972 4.859-3.353-0.735 2.487-3.078 4.25-4.859 3.353z"></path><path d="M145.902 19.787c-0.027-1.717 1.971-3.48 3.431-4.22-0.093 2.313-1.523 4.55-3.431 4.22z"></path><path d="M146.398 15.264c-0.174-0.642-0.091-1.26 0.154-1.86 0.035-0.103 0.098-0.215 0.125-0.347 0.343-0.814 0.958-1.67 1.665-2.3 0.494 1.935-0.186 4.282-1.943 4.507z"></path><path d="M145.5 10.805c-0.758-1.174-0.182-3.211 0.587-4.422 0.906 1.604 0.839 3.785-0.587 4.422z"></path><path d="M143.299 6.856c-0.979-0.832-0.958-2.719-0.564-3.922 1.124 1.137 1.631 3.006 0.564 3.922z"></path><path d="M138.635 0.533c1.613 0.974 1.914 2.428 1.371 3.202-1.037-0.471-1.466-2.048-1.371-3.202z"></path><path d="M137.17 28.389c-1.259-1.289-0.983-3.621-0.371-5.291 2.221 2.753 1.606 4.643 0.371 5.291z"></path><path d="M140.7 26.148c-1.507-0.814-1.916-3.243-1.71-4.678 0.425 0.293 0.828 0.622 1.18 0.997 1.013 1.074 1.558 2.619 0.53 3.681z"></path><path d="M140.642 19.236c2.868 0.979 3.307 2.709 2.74 3.74-1.534-0.337-2.453-2.22-2.74-3.74z"></path><path d="M141.621 16.494c2.734 0.137 3.629 1.588 3.408 2.619-1.51 0.096-2.916-1.499-3.408-2.619z"></path><path d="M141.715 13.491c1.535-0.353 3.465-0.060 3.657 1.455-1.225 0.457-2.866-0.509-3.657-1.455z"></path><path d="M144.51 10.854c-0.94 0.694-2.615 0.301-3.583-0.378 1.888-1.013 3.228-0.467 3.583 0.378z"></path><path d="M142.454 7.21c-0.651 0.835-2.206 0.88-3.204 0.554 1.318-1.266 2.611-1.24 3.204-0.554z"></path><path d="M139.416 4.334c-0.386 0.888-1.634 1.257-2.648 1.218 0.889-1.463 2.104-1.604 2.648-1.218z"></path><path d="M137.127 28.808c10.165-4.132 12.099-19.294 1.337-25.439l0.064-0.111c11.271 6.289 9.095 22.52-2.209 26.27l-0.111-0.409c0.322-0.087 0.605-0.195 0.919-0.311z"></path><path d="M70.14 20.592l15.703-15.76 5.451 5.484-10.252 10.277h9.641l5.432-5.426 4.839-4.87-10.271-10.296h-0.019l-9.64 0.019-0.019-0.019-15.684 15.741-5.432-5.464 10.233-10.277h-9.659l-5.394 5.426-4.858 4.87 10.271 10.296h9.659z"></path><path d="M57.804 30.102h-1.052c-0.019 0.058-0.038 0.134-0.058 0.192v0.019c0 0.019-0.019 0.038-0.019 0.058-0.058 0.115-0.115 0.211-0.172 0.288-0.211 0.249-0.516 0.383-0.899 0.383-0.708 0-1.243-0.537-1.243-1.38s0.535-1.38 1.243-1.38c0.574 0 0.995 0.326 1.186 0.863h1.052c-0.191-1.093-1.033-1.821-2.219-1.821-0.631 0-1.167 0.23-1.588 0.594-0.459 0.422-0.727 1.035-0.727 1.745 0 1.38 0.976 2.339 2.353 2.339 1.109-0.019 1.951-0.786 2.142-1.898z"></path><path d="M61.514 27.398l-0.918 1.649-0.938-1.649h-1.166l1.568 2.665v1.821h1.052v-1.821l1.569-2.665h-1.167z"></path><path d="M66.621 29.546c0.344-0.211 0.535-0.575 0.535-0.959 0-0.69-0.478-1.189-1.454-1.189h-1.779v4.486h1.817c0.44 0 0.784-0.096 1.033-0.288 0 0 0 0 0.019-0.019 0.038-0.019 0.058-0.038 0.096-0.077 0.268-0.23 0.402-0.537 0.402-0.901-0.019-0.479-0.23-0.844-0.669-1.055zM65.588 28.3c0.325 0 0.478 0.173 0.478 0.422 0 0.192-0.095 0.326-0.268 0.403-0.057 0.019-0.134 0.038-0.21 0.038h-0.631v-0.844h0.631v-0.019zM65.627 30.965h-0.67v-0.959h0.67c0.382 0 0.555 0.192 0.555 0.479 0 0.173-0.077 0.326-0.211 0.403-0.076 0.058-0.191 0.077-0.344 0.077z"></path><path d="M69.719 30.102h1.511v-0.959h-1.511v-0.786h1.664v-0.959h-2.716v4.486h2.793v-0.959h-1.741v-0.824z"></path><path d="M75.573 30.179c0.516-0.249 0.803-0.748 0.803-1.285 0-0.844-0.651-1.496-1.588-1.496h-1.836v4.486h1.052v-1.496h0.535l0.842 1.496h1.167l-0.975-1.706zM74.004 28.357h0.669c0.402 0 0.612 0.211 0.612 0.537s-0.211 0.537-0.612 0.537h-0.669v-1.074z"></path><path d="M81.139 30.102c-0.172 0.575-0.555 0.92-1.186 0.92-0.708 0-1.243-0.537-1.243-1.38s0.535-1.361 1.243-1.38c0.574 0 0.995 0.326 1.167 0.863h1.033c-0.191-1.093-1.033-1.821-2.219-1.821-1.339 0-2.314 0.997-2.314 2.339 0 1.38 0.975 2.339 2.353 2.339 1.186 0 2.028-0.767 2.199-1.898l-1.033 0.019z"></path><path d="M85.805 27.283c-1.396 0-2.41 1.016-2.41 2.339 0 1.342 1.013 2.339 2.391 2.339s2.39-1.016 2.39-2.339c0-1.323-0.994-2.339-2.372-2.339zM84.486 29.642c0-0.786 0.574-1.361 1.319-1.38 0.727 0 1.301 0.575 1.301 1.38 0 0.786-0.574 1.361-1.301 1.38-0.746-0.019-1.319-0.594-1.319-1.38z"></path><path d="M91.372 27.398h-1.76v4.486h1.76c1.339 0 2.276-0.939 2.276-2.243s-0.937-2.243-2.276-2.243zM90.683 30.926v-2.569h0.631c0.746 0 1.243 0.479 1.243 1.285 0 0.786-0.478 1.285-1.224 1.285h-0.65z"></path><path d="M96.134 30.102h1.492v-0.959h-1.492v-0.786h1.664v-0.959h-2.735v4.486h2.812v-0.959h-1.74v-0.824z"></path></svg>