<svg width="25" height="31" viewBox="0 0 25 31" fill="none" xmlns="http://www.w3.org/2000/svg">
<path d="M23.9336 8.84991H1.5664C1.25376 8.84991 1 9.10362 1 9.41626V26.0648C1 28.251 2.77842 30.0294 4.96468 30.0294H20.5354C22.7216 30.0294 24.5 28.251 24.5 26.0648V9.41626C24.5 9.10362 24.2462 8.84991 23.9336 8.84991ZM23.3673 26.0648C23.3673 27.6269 22.0974 28.8966 20.5354 28.8966H4.96468C3.40259 28.8966 2.1328 27.6268 2.1328 26.0648V9.98266H23.3673V26.0648Z" fill="white" stroke="white" stroke-width="0.7"/>
<path d="M12.7496 1C9.62662 1 7.08582 3.5408 7.08582 6.66382V12.8146C7.08582 13.1272 7.33957 13.3809 7.65221 13.3809C7.96486 13.3809 8.21861 13.1272 8.21861 12.8146V6.66382C8.21861 4.16497 10.2508 2.1328 12.7496 2.1328C15.2485 2.1328 17.2807 4.16497 17.2807 6.66382V12.8146C17.2807 13.1272 17.5344 13.3809 17.8471 13.3809C18.1597 13.3809 18.4135 13.1272 18.4135 12.8146V6.66382C18.4135 3.5408 15.8727 1 12.7496 1Z" fill="white" stroke="white" stroke-width="0.7"/>
<path d="M7.65251 12.2482C6.7157 12.2482 5.95337 13.0106 5.95337 13.9474C5.95337 14.8842 6.7157 15.6465 7.65251 15.6465C8.58932 15.6465 9.35165 14.8842 9.35165 13.9474C9.35165 13.0106 8.58932 12.2482 7.65251 12.2482ZM7.65251 14.5137C7.34098 14.5137 7.08611 14.2588 7.08611 13.9473C7.08611 13.6358 7.34098 13.3809 7.65251 13.3809C7.96404 13.3809 8.21891 13.6358 8.21891 13.9473C8.21891 14.2588 7.96404 14.5137 7.65251 14.5137Z" fill="white"/>
<path d="M17.8473 12.2482C16.9105 12.2482 16.1482 13.0106 16.1482 13.9474C16.1482 14.8842 16.9105 15.6465 17.8473 15.6465C18.7841 15.6465 19.5465 14.8842 19.5465 13.9474C19.5465 13.0106 18.7841 12.2482 17.8473 12.2482ZM17.8473 14.5137C17.5358 14.5137 17.2809 14.2588 17.2809 13.9473C17.2809 13.6358 17.5358 13.3809 17.8473 13.3809C18.1589 13.3809 18.4137 13.6358 18.4137 13.9473C18.4137 14.2588 18.1589 14.5137 17.8473 14.5137Z" fill="white"/>
</svg>
