<svg xmlns="http://www.w3.org/2000/svg" width="36" height="36" viewBox="0 0 36 36" fill="none"><path d="M25.676 2.25H10.324C5.44966 2.25 1.5 6.21962 1.5 11.1186V31.0455C1.5 33.306 4.10176 34.5662 5.865 33.1564L10.2065 29.6672C10.5435 29.3915 10.9666 29.2419 11.4055 29.2419H25.676C30.5503 29.2419 34.5 25.2722 34.5 20.3732V11.1186C34.5 6.21962 30.5503 2.25 25.676 2.25ZM10.4024 17.7504C9.34445 17.7504 8.48243 16.8841 8.48243 15.8208C8.48243 14.7575 9.34445 13.8911 10.4024 13.8911C11.4603 13.8911 12.3224 14.7575 12.3224 15.8208C12.3224 16.8919 11.4603 17.7504 10.4024 17.7504ZM18.0744 17.7504C17.0165 17.7504 16.1545 16.8841 16.1545 15.8208C16.1545 14.7575 17.0165 13.8911 18.0744 13.8911C19.1324 13.8911 19.9944 14.7575 19.9944 15.8208C19.9944 16.8919 19.1402 17.7504 18.0744 17.7504ZM25.7543 17.7504C24.6964 17.7504 23.8344 16.8841 23.8344 15.8208C23.8344 14.7575 24.6964 13.8911 25.7543 13.8911C26.8123 13.8911 27.6743 14.7575 27.6743 15.8208C27.6665 16.8919 26.8123 17.7504 25.7543 17.7504Z" fill="#636EDF"></path></svg>