<svg xmlns="http://www.w3.org/2000/svg" width="36" height="36" viewBox="0 0 36 36" fill="none"><g clip-path="url(#clip0_73_650)"><path d="M19.0978 4.75636V2.18182H21.2276C21.835 2.18182 22.3254 1.69455 22.3254 1.09091C22.3254 0.487273 21.835 0 21.2276 0H14.7651C14.1576 0 13.6673 0.487273 13.6673 1.09091C13.6673 1.69455 14.1576 2.18182 14.7651 2.18182H16.8949V4.75636C8.7198 5.31636 2.25 12.08 2.25 20.3491C2.25 28.9964 9.29798 36 18 36C26.6947 36 33.75 28.9964 33.75 20.3491C33.7427 12.08 27.2802 5.31636 19.0978 4.75636ZM23.6208 16.3055L18.7758 21.12C18.5635 21.3309 18.2781 21.44 18 21.44C17.7219 21.44 17.4365 21.3309 17.2242 21.12C16.7924 20.6909 16.7924 20 17.2242 19.5782L22.0692 14.7636C22.501 14.3345 23.1963 14.3345 23.6208 14.7636C24.0453 15.1927 24.0453 15.8836 23.6208 16.3055Z" fill="#636EDF"></path></g><defs><clipPath id="clip0_73_650"><rect width="36" height="36" fill="white"></rect></clipPath></defs></svg>