<svg xmlns="http://www.w3.org/2000/svg" width="48" height="48" viewBox="0 0 48 48" fill="none"><path d="M20.3867 39.0977L18.0031 46.6217C17.9319 46.8469 17.7229 47 17.4857 47H7.71429C7.54166 47 7.3788 46.9177 7.2762 46.7787C7.1736 46.6396 7.14429 46.4604 7.19694 46.2959L11.048 34.1389C11.1788 34.4431 11.2982 34.784 11.416 35.1212C11.815 36.2652 12.2672 37.5613 13.4116 38.2216C14.5402 38.8726 15.8827 38.6188 17.0655 38.3964C17.8131 38.2551 18.5855 38.1101 19.0812 38.2421C19.4595 38.3423 19.9215 38.7032 20.3867 39.0977ZM36.952 34.1384C36.8212 34.4425 36.7012 34.784 36.5834 35.1217C36.1844 36.2652 35.7322 37.5619 34.5884 38.2216C33.4598 38.8726 32.1173 38.6199 30.9345 38.3964C30.1859 38.2551 29.4134 38.1112 28.9188 38.2416C28.5405 38.3428 28.0785 38.7032 27.6133 39.0977L29.9964 46.6217C30.0681 46.8469 30.2771 47 30.5143 47H40.2857C40.4583 47 40.6212 46.9177 40.7238 46.7787C40.8264 46.6396 40.8557 46.4604 40.8031 46.2959L36.952 34.1384ZM35.4 19.9412C35.4 26.2075 30.2857 31.3059 24 31.3059C17.7143 31.3059 12.6 26.2075 12.6 19.9412C12.6 13.6749 17.7143 8.57647 24 8.57647C30.2857 8.57647 35.4 13.6749 35.4 19.9412ZM31.0289 17.6953C30.9643 17.5032 30.7971 17.363 30.5963 17.3322L26.381 16.6898L24.4913 12.6759C24.4017 12.4865 24.2106 12.3647 24 12.3647C23.7894 12.3647 23.5983 12.4865 23.5087 12.6759L21.619 16.6898L17.4037 17.3322C17.2029 17.363 17.0357 17.5026 16.9711 17.6953C16.9065 17.888 16.9553 18.0996 17.097 18.2451L20.1473 21.3618L19.1279 25.7729C19.0806 25.978 19.1572 26.1918 19.3233 26.3216C19.4894 26.451 19.7169 26.4726 19.9041 26.3763L24 24.2836L28.0953 26.3752C28.1729 26.4158 28.2587 26.4353 28.3429 26.4353C28.4617 26.4353 28.5795 26.3969 28.6762 26.3211C28.8428 26.1918 28.9188 25.9775 28.8716 25.7724L27.8521 21.3612L30.9024 18.2446C31.0452 18.0996 31.0935 17.8874 31.0289 17.6953ZM40.2591 24.2874C39.9991 25.2561 40.1918 26.2729 40.3785 27.2568C40.5322 28.0659 40.7064 28.9837 40.4573 29.4128C40.1994 29.8566 39.3042 30.1678 38.5138 30.4411C37.5747 30.7669 36.6024 31.1035 35.9011 31.8027C35.1975 32.5046 34.8599 33.4733 34.5331 34.4101C34.2578 35.198 33.9468 36.0899 33.5022 36.3469C33.4479 36.3778 33.2856 36.4714 32.8638 36.4714C32.4159 36.4714 31.8687 36.3686 31.3394 36.2685C30.7325 36.1537 30.0458 36.0244 29.3857 36.0244C29.0122 36.0244 28.6773 36.065 28.3635 36.1478C27.4205 36.4 26.6529 37.0613 25.9103 37.7015C25.2366 38.2827 24.5412 38.8824 24 38.8824C23.4577 38.8824 22.7623 38.2827 22.0891 37.7015C21.3465 37.0613 20.5784 36.3994 19.6398 36.15C19.3249 36.0661 18.9878 36.0255 18.6111 36.0255C17.9531 36.0255 17.2664 36.1548 16.6606 36.2696C16.1286 36.3697 15.5814 36.4725 15.1341 36.4725C14.7139 36.4725 14.551 36.3783 14.4978 36.348C14.0521 36.0904 13.74 35.198 13.4659 34.4101C13.1391 33.4738 12.8014 32.5046 12.1 31.8054C11.3959 31.104 10.4242 30.7674 9.48454 30.4416C8.69414 30.1672 7.79951 29.8572 7.54166 29.4139C7.29303 28.9848 7.46674 28.068 7.62037 27.2584C7.80766 26.2692 7.99929 25.255 7.74034 24.2879C7.489 23.3522 6.82509 22.5864 6.18343 21.8467C5.60149 21.174 5 20.4807 5 19.9412C5 19.4005 5.60149 18.7073 6.18451 18.0362C6.82671 17.2959 7.49063 16.5301 7.74089 15.5944C8.00091 14.6257 7.8082 13.6089 7.62146 12.625C7.46783 11.816 7.29357 10.8981 7.54274 10.469C7.8006 10.0252 8.69577 9.71402 9.48617 9.44073C10.4253 9.11494 11.3976 8.77833 12.0989 8.07913C12.8025 7.37722 13.1401 6.40852 13.4669 5.47174C13.7422 4.68379 14.0532 3.79193 14.4978 3.53487C14.5521 3.50402 14.715 3.40986 15.1368 3.40986C15.5857 3.40986 16.1318 3.51322 16.66 3.61334C17.2659 3.72753 17.9509 3.85687 18.6143 3.85687C18.9867 3.85687 19.3189 3.81736 19.6316 3.73511C20.5795 3.48184 21.3471 2.82052 22.0891 2.18031C22.7634 1.59962 23.4588 1 24 1C24.5423 1 25.2377 1.59962 25.9109 2.18085C26.6535 2.82106 27.4216 3.48292 28.3602 3.7324C28.6745 3.81574 29.0106 3.85687 29.3873 3.85687C30.0425 3.85687 30.7309 3.72753 31.3378 3.61334C31.8693 3.51268 32.4175 3.40986 32.8649 3.40986C33.285 3.40986 33.4484 3.50402 33.5016 3.53433C33.9473 3.79193 34.2595 4.68433 34.5336 5.47228C34.8604 6.40852 35.1981 7.37776 35.8994 8.07696C36.6035 8.77833 37.5752 9.11494 38.5149 9.44073C39.3053 9.71511 40.1999 10.0252 40.4578 10.4684C40.7064 10.8976 40.5327 11.8143 40.3791 12.6239C40.1918 13.6132 40.0002 14.6274 40.2591 15.5944C40.5105 16.5301 41.1744 17.2959 41.816 18.0357C42.3985 18.7084 43 19.4016 43 19.9412C43 20.4818 42.3985 21.1751 41.8155 21.8461C41.1738 22.5864 40.5094 23.3522 40.2591 24.2874ZM37.5714 19.9412C37.5714 12.4811 31.4833 6.41177 24 6.41177C16.5167 6.41177 10.4286 12.4811 10.4286 19.9412C10.4286 27.4013 16.5167 33.4706 24 33.4706C31.4833 33.4706 37.5714 27.4013 37.5714 19.9412Z" fill="#636EDF"></path></svg>