<svg xmlns="http://www.w3.org/2000/svg" width="36" height="36" viewBox="0 0 36 36" fill="none"><path d="M34.3103 21.1017V17.8983C34.3103 8.86017 26.9972 1.5 18 1.5C9.01034 1.5 1.68966 8.86017 1.68966 17.8983V21.1017C1.56828 21.3686 1.5 21.6585 1.5 21.9636V33.1525C1.5 34.3119 2.4331 35.25 3.58621 35.25H9.40483C10.5579 35.25 11.491 34.3119 11.491 33.1525V21.9636C11.491 20.8042 10.5579 19.8661 9.40483 19.8661H3.96552V17.8983C3.96552 10.1186 10.2621 3.78814 18 3.78814C25.7379 3.78814 32.0345 10.1186 32.0345 17.8983V19.8661H26.5952C25.4421 19.8661 24.509 20.8042 24.509 21.9636V33.1525C24.509 34.3119 25.4421 35.25 26.5952 35.25H32.4138C33.5669 35.25 34.5 34.3119 34.5 33.1525V21.9636C34.5 21.6585 34.4317 21.3686 34.3103 21.1017Z" fill="#636EDF"></path></svg>