<svg xmlns="http://www.w3.org/2000/svg" width="146" height="48" viewBox="0 0 146 48" fill="none"><path opacity="0.7" d="M13.2778 22.3173C14.1 19.249 17.2539 16.0951 20.3222 15.2729L39.4512 10.1465C42.5194 9.32425 44.3402 11.145 43.5179 14.2133L38.3916 33.3422C37.5693 36.4105 34.4154 39.5644 31.3471 40.3867L12.2181 45.513C9.14988 46.3353 7.32913 44.5146 8.15139 41.4463L13.2778 22.3173Z" fill="white"></path><path d="M5.60882 14.6493C6.43108 11.5811 9.58498 8.42717 12.6533 7.60491L31.7822 2.47854C34.8505 1.65628 36.6713 3.47702 35.849 6.54529L30.7226 25.6743C29.9004 28.7425 26.7465 31.8964 23.6782 32.7187L4.5492 37.8451C1.48093 38.6673 -0.339816 36.8466 0.482448 33.7783L5.60882 14.6493Z" fill="white"></path><path d="M61.5243 30.2139H67.7963V33.9099H56.7363V14.2539H61.5243V30.2139Z" fill="white"></path><path d="M68.5681 26.0699C68.5681 24.4646 68.8667 23.0552 69.4641 21.8419C70.0801 20.6286 70.9107 19.6952 71.9561 19.0419C73.0014 18.3886 74.1681 18.0619 75.4561 18.0619C76.5574 18.0619 77.5187 18.2859 78.3401 18.7339C79.1801 19.1819 79.8241 19.7699 80.2721 20.4979V18.2859H85.0601V33.9099H80.2721V31.6979C79.8054 32.4259 79.1521 33.0139 78.3121 33.4619C77.4907 33.9099 76.5294 34.1339 75.4281 34.1339C74.1587 34.1339 73.0014 33.8072 71.9561 33.1539C70.9107 32.4819 70.0801 31.5392 69.4641 30.3259C68.8667 29.0939 68.5681 27.6752 68.5681 26.0699ZM80.2721 26.0979C80.2721 24.9032 79.9361 23.9606 79.2641 23.2699C78.6107 22.5792 77.8081 22.2339 76.8561 22.2339C75.9041 22.2339 75.0921 22.5792 74.4201 23.2699C73.7667 23.9419 73.4401 24.8752 73.4401 26.0699C73.4401 27.2646 73.7667 28.2166 74.4201 28.9259C75.0921 29.6166 75.9041 29.9619 76.8561 29.9619C77.8081 29.9619 78.6107 29.6166 79.2641 28.9259C79.9361 28.2352 80.2721 27.2926 80.2721 26.0979Z" fill="white"></path><path d="M103.924 18.2859L94.124 41.3299H88.972L92.556 33.3779L86.2 18.2859H91.548L95.16 28.0579L98.744 18.2859H103.924Z" fill="white"></path><path d="M119.823 25.8459C119.823 26.2939 119.795 26.7606 119.739 27.2459H108.903C108.978 28.2166 109.286 28.9632 109.827 29.4859C110.387 29.9899 111.069 30.2419 111.871 30.2419C113.066 30.2419 113.897 29.7379 114.363 28.7299H119.459C119.198 29.7566 118.722 30.6806 118.031 31.5019C117.359 32.3232 116.51 32.9672 115.483 33.4339C114.457 33.9006 113.309 34.1339 112.039 34.1339C110.509 34.1339 109.146 33.8072 107.951 33.1539C106.757 32.5006 105.823 31.5672 105.151 30.3539C104.479 29.1406 104.143 27.7219 104.143 26.0979C104.143 24.4739 104.47 23.0552 105.123 21.8419C105.795 20.6286 106.729 19.6952 107.923 19.0419C109.118 18.3886 110.49 18.0619 112.039 18.0619C113.551 18.0619 114.895 18.3792 116.071 19.0139C117.247 19.6486 118.162 20.5539 118.815 21.7299C119.487 22.9059 119.823 24.2779 119.823 25.8459ZM114.923 24.5859C114.923 23.7646 114.643 23.1112 114.083 22.6259C113.523 22.1406 112.823 21.8979 111.983 21.8979C111.181 21.8979 110.499 22.1312 109.939 22.5979C109.398 23.0646 109.062 23.7272 108.931 24.5859H114.923Z" fill="white"></path><path d="M126.577 20.8899C127.137 20.0312 127.837 19.3592 128.677 18.8739C129.517 18.3699 130.451 18.1179 131.477 18.1179V23.1859H130.161C128.967 23.1859 128.071 23.4472 127.473 23.9699C126.876 24.4739 126.577 25.3699 126.577 26.6579V33.9099H121.789V18.2859H126.577V20.8899Z" fill="white"></path><path d="M139.562 34.1339C138.199 34.1339 136.986 33.9006 135.922 33.4339C134.858 32.9672 134.018 32.3326 133.402 31.5299C132.786 30.7086 132.441 29.7939 132.366 28.7859H137.098C137.154 29.3272 137.406 29.7659 137.854 30.1019C138.302 30.4379 138.853 30.6059 139.506 30.6059C140.103 30.6059 140.561 30.4939 140.878 30.2699C141.214 30.0272 141.382 29.7192 141.382 29.3459C141.382 28.8979 141.149 28.5712 140.682 28.3659C140.215 28.1419 139.459 27.8992 138.414 27.6379C137.294 27.3766 136.361 27.1059 135.614 26.8259C134.867 26.5272 134.223 26.0699 133.682 25.4539C133.141 24.8192 132.87 23.9699 132.87 22.9059C132.87 22.0099 133.113 21.1979 133.598 20.4699C134.102 19.7232 134.83 19.1352 135.782 18.7059C136.753 18.2766 137.901 18.0619 139.226 18.0619C141.186 18.0619 142.726 18.5472 143.846 19.5179C144.985 20.4886 145.638 21.7766 145.806 23.3819H141.382C141.307 22.8406 141.065 22.4112 140.654 22.0939C140.262 21.7766 139.739 21.6179 139.086 21.6179C138.526 21.6179 138.097 21.7299 137.798 21.9539C137.499 22.1592 137.35 22.4486 137.35 22.8219C137.35 23.2699 137.583 23.6059 138.05 23.8299C138.535 24.0539 139.282 24.2779 140.29 24.5019C141.447 24.8006 142.39 25.0992 143.118 25.3979C143.846 25.6779 144.481 26.1446 145.022 26.7979C145.582 27.4326 145.871 28.2912 145.89 29.3739C145.89 30.2886 145.629 31.1099 145.106 31.8379C144.602 32.5472 143.865 33.1072 142.894 33.5179C141.942 33.9286 140.831 34.1339 139.562 34.1339Z" fill="white"></path></svg>