<svg xmlns="http://www.w3.org/2000/svg" width="189" height="48" viewBox="0 0 189 48" fill="none"><path d="M21.58 4C17.94 4 15 6.90426 15 10.5C15 14.0681 17.94 16.9723 21.552 17C20.656 16.9723 19.956 16.2532 19.956 15.3681C19.956 14.483 20.684 13.7362 21.608 13.7362C25.528 13.7362 34.236 13.7362 38.072 13.7362C40.788 13.7362 43 11.5511 43 8.86812C43 6.1851 40.788 4 38.072 4L21.58 4Z" fill="white"></path><path opacity="0.9" d="M13.58 17C9.94 17 7 19.9043 7 23.5C7 27.0681 9.94 29.9723 13.552 30C12.656 29.9723 11.956 29.2532 11.956 28.3681C11.956 27.483 12.684 26.7362 13.608 26.7362C17.528 26.7362 26.236 26.7362 30.072 26.7362C32.788 26.7362 35 24.5511 35 21.8681C35 19.1851 32.788 17 30.072 17L13.58 17Z" fill="white"></path><path opacity="0.8" d="M8.05 30C4.15 30 1 33.1277 1 37C1 40.8426 4.15 43.9702 8.01998 44C7.05999 43.9702 6.31 43.1958 6.31 42.2425C6.31 41.2894 7.09002 40.4851 8.08003 40.4851C12.28 40.4851 21.61 40.4851 25.72 40.4851C28.63 40.4851 31 38.1319 31 35.2426C31 32.3532 28.63 30 25.72 30L8.05 30Z" fill="white"></path><path d="M52.9805 33.9083V12.9083H66.4805V16.5083H56.9405V21.5183H65.6405V25.1183H56.9405V30.3083H66.6605V33.9083H52.9805Z" fill="white"></path><path d="M68.2118 39.9083V19.0283H71.9318V20.8283H72.4718C72.8118 20.2483 73.3418 19.7383 74.0618 19.2983C74.7818 18.8383 75.8118 18.6083 77.1518 18.6083C78.3518 18.6083 79.4618 18.9083 80.4818 19.5083C81.5018 20.0883 82.3218 20.9483 82.9418 22.0883C83.5618 23.2283 83.8718 24.6083 83.8718 26.2283V26.7083C83.8718 28.3283 83.5618 29.7083 82.9418 30.8483C82.3218 31.9883 81.5018 32.8583 80.4818 33.4583C79.4618 34.0383 78.3518 34.3283 77.1518 34.3283C76.2518 34.3283 75.4918 34.2183 74.8718 33.9983C74.2718 33.7983 73.7818 33.5383 73.4018 33.2183C73.0418 32.8783 72.7518 32.5383 72.5318 32.1983H71.9918V39.9083H68.2118ZM76.0118 31.0283C77.1918 31.0283 78.1618 30.6583 78.9218 29.9183C79.7018 29.1583 80.0918 28.0583 80.0918 26.6183V26.3183C80.0918 24.8783 79.7018 23.7883 78.9218 23.0483C78.1418 22.2883 77.1718 21.9083 76.0118 21.9083C74.8518 21.9083 73.8818 22.2883 73.1018 23.0483C72.3218 23.7883 71.9318 24.8783 71.9318 26.3183V26.6183C71.9318 28.0583 72.3218 29.1583 73.1018 29.9183C73.8818 30.6583 74.8518 31.0283 76.0118 31.0283Z" fill="white"></path><path d="M85.8427 33.9083V19.0283H89.6227V33.9083H85.8427ZM87.7327 17.2883C87.0527 17.2883 86.4727 17.0683 85.9927 16.6283C85.5327 16.1883 85.3027 15.6083 85.3027 14.8883C85.3027 14.1683 85.5327 13.5883 85.9927 13.1483C86.4727 12.7083 87.0527 12.4883 87.7327 12.4883C88.4327 12.4883 89.0127 12.7083 89.4727 13.1483C89.9327 13.5883 90.1627 14.1683 90.1627 14.8883C90.1627 15.6083 89.9327 16.1883 89.4727 16.6283C89.0127 17.0683 88.4327 17.2883 87.7327 17.2883Z" fill="white"></path><path d="M99.3014 34.3283C97.8614 34.3283 96.5514 34.0283 95.3714 33.4283C94.2114 32.8283 93.2914 31.9583 92.6114 30.8183C91.9314 29.6783 91.5914 28.2983 91.5914 26.6783V26.2583C91.5914 24.6383 91.9314 23.2583 92.6114 22.1183C93.2914 20.9783 94.2114 20.1083 95.3714 19.5083C96.5514 18.9083 97.8614 18.6083 99.3014 18.6083C100.721 18.6083 101.941 18.8583 102.961 19.3583C103.981 19.8583 104.801 20.5483 105.421 21.4283C106.061 22.2883 106.481 23.2683 106.681 24.3683L103.021 25.1483C102.941 24.5483 102.761 24.0083 102.481 23.5283C102.201 23.0483 101.801 22.6683 101.281 22.3883C100.781 22.1083 100.151 21.9683 99.3914 21.9683C98.6314 21.9683 97.9414 22.1383 97.3214 22.4783C96.7214 22.7983 96.2414 23.2883 95.8814 23.9483C95.5414 24.5883 95.3714 25.3783 95.3714 26.3183V26.6183C95.3714 27.5583 95.5414 28.3583 95.8814 29.0183C96.2414 29.6583 96.7214 30.1483 97.3214 30.4883C97.9414 30.8083 98.6314 30.9683 99.3914 30.9683C100.531 30.9683 101.391 30.6783 101.971 30.0983C102.571 29.4983 102.951 28.7183 103.111 27.7583L106.771 28.6283C106.511 29.6883 106.061 30.6583 105.421 31.5383C104.801 32.3983 103.981 33.0783 102.961 33.5783C101.941 34.0783 100.721 34.3283 99.3014 34.3283Z" fill="white"></path><path d="M114.06 34.1483C112.9 34.1483 111.88 33.8883 111 33.3683C110.14 32.8283 109.47 32.0883 108.99 31.1483C108.51 30.2083 108.27 29.1283 108.27 27.9083V19.0283H112.05V27.6083C112.05 28.7283 112.32 29.5683 112.86 30.1283C113.42 30.6883 114.21 30.9683 115.23 30.9683C116.39 30.9683 117.29 30.5883 117.93 29.8283C118.57 29.0483 118.89 27.9683 118.89 26.5883V19.0283H122.67V33.9083H118.95V31.9583H118.41C118.17 32.4583 117.72 32.9483 117.06 33.4283C116.4 33.9083 115.4 34.1483 114.06 34.1483Z" fill="white"></path><path d="M125.376 33.9083V19.0283H129.096V20.7083H129.636C129.856 20.1083 130.216 19.6683 130.716 19.3883C131.236 19.1083 131.836 18.9683 132.516 18.9683H134.316V22.3283H132.456C131.496 22.3283 130.706 22.5883 130.086 23.1083C129.466 23.6083 129.156 24.3883 129.156 25.4483V33.9083H125.376Z" fill="white"></path><path d="M135.77 33.9083V19.0283H139.55V33.9083H135.77ZM137.66 17.2883C136.98 17.2883 136.4 17.0683 135.92 16.6283C135.46 16.1883 135.23 15.6083 135.23 14.8883C135.23 14.1683 135.46 13.5883 135.92 13.1483C136.4 12.7083 136.98 12.4883 137.66 12.4883C138.36 12.4883 138.94 12.7083 139.4 13.1483C139.86 13.5883 140.09 14.1683 140.09 14.8883C140.09 15.6083 139.86 16.1883 139.4 16.6283C138.94 17.0683 138.36 17.2883 137.66 17.2883Z" fill="white"></path><path d="M149.319 34.3283C147.839 34.3283 146.509 34.0283 145.329 33.4283C144.149 32.8283 143.219 31.9583 142.539 30.8183C141.859 29.6783 141.519 28.3083 141.519 26.7083V26.2283C141.519 24.6283 141.859 23.2583 142.539 22.1183C143.219 20.9783 144.149 20.1083 145.329 19.5083C146.509 18.9083 147.839 18.6083 149.319 18.6083C150.799 18.6083 152.129 18.9083 153.309 19.5083C154.489 20.1083 155.419 20.9783 156.099 22.1183C156.779 23.2583 157.119 24.6283 157.119 26.2283V26.7083C157.119 28.3083 156.779 29.6783 156.099 30.8183C155.419 31.9583 154.489 32.8283 153.309 33.4283C152.129 34.0283 150.799 34.3283 149.319 34.3283ZM149.319 30.9683C150.479 30.9683 151.439 30.5983 152.199 29.8583C152.959 29.0983 153.339 28.0183 153.339 26.6183V26.3183C153.339 24.9183 152.959 23.8483 152.199 23.1083C151.459 22.3483 150.499 21.9683 149.319 21.9683C148.159 21.9683 147.199 22.3483 146.439 23.1083C145.679 23.8483 145.299 24.9183 145.299 26.3183V26.6183C145.299 28.0183 145.679 29.0983 146.439 29.8583C147.199 30.5983 148.159 30.9683 149.319 30.9683Z" fill="white"></path><path d="M164.778 34.1483C163.618 34.1483 162.598 33.8883 161.718 33.3683C160.858 32.8283 160.188 32.0883 159.708 31.1483C159.228 30.2083 158.988 29.1283 158.988 27.9083V19.0283H162.768V27.6083C162.768 28.7283 163.038 29.5683 163.578 30.1283C164.138 30.6883 164.928 30.9683 165.948 30.9683C167.108 30.9683 168.008 30.5883 168.648 29.8283C169.288 29.0483 169.608 27.9683 169.608 26.5883V19.0283H173.388V33.9083H169.668V31.9583H169.128C168.888 32.4583 168.438 32.9483 167.778 33.4283C167.118 33.9083 166.118 34.1483 164.778 34.1483Z" fill="white"></path><path d="M182.275 34.3283C180.335 34.3283 178.745 33.9083 177.505 33.0683C176.265 32.2283 175.515 31.0283 175.255 29.4683L178.735 28.5683C178.875 29.2683 179.105 29.8183 179.425 30.2183C179.765 30.6183 180.175 30.9083 180.655 31.0883C181.155 31.2483 181.695 31.3283 182.275 31.3283C183.155 31.3283 183.805 31.1783 184.225 30.8783C184.645 30.5583 184.855 30.1683 184.855 29.7083C184.855 29.2483 184.655 28.8983 184.255 28.6583C183.855 28.3983 183.215 28.1883 182.335 28.0283L181.495 27.8783C180.455 27.6783 179.505 27.4083 178.645 27.0683C177.785 26.7083 177.095 26.2183 176.575 25.5983C176.055 24.9783 175.795 24.1783 175.795 23.1983C175.795 21.7183 176.335 20.5883 177.415 19.8083C178.495 19.0083 179.915 18.6083 181.675 18.6083C183.335 18.6083 184.715 18.9783 185.815 19.7183C186.915 20.4583 187.635 21.4283 187.975 22.6283L184.465 23.7083C184.305 22.9483 183.975 22.4083 183.475 22.0883C182.995 21.7683 182.395 21.6083 181.675 21.6083C180.955 21.6083 180.405 21.7383 180.025 21.9983C179.645 22.2383 179.455 22.5783 179.455 23.0183C179.455 23.4983 179.655 23.8583 180.055 24.0983C180.455 24.3183 180.995 24.4883 181.675 24.6083L182.515 24.7583C183.635 24.9583 184.645 25.2283 185.545 25.5683C186.465 25.8883 187.185 26.3583 187.705 26.9783C188.245 27.5783 188.515 28.3983 188.515 29.4383C188.515 30.9983 187.945 32.2083 186.805 33.0683C185.685 33.9083 184.175 34.3283 182.275 34.3283Z" fill="white"></path></svg>