<svg xmlns="http://www.w3.org/2000/svg" width="36" height="36" viewBox="0 0 36 36" fill="none"><path d="M31.8746 8.31104L18.3712 0.84519C18.1462 0.71827 17.8686 0.71827 17.6435 0.84519L4.1401 8.31104C3.90004 8.43796 3.75 8.6918 3.75 8.96057V23.8325C3.75 26.5426 5.22787 29.0437 7.60598 30.3577L17.636 35.9048C17.8611 36.0317 18.1386 36.0317 18.3637 35.9048L28.3938 30.3577C30.7719 29.0437 32.2497 26.5426 32.2497 23.8325V8.96057C32.2572 8.6918 32.1072 8.43796 31.8746 8.31104ZM25.0329 15.6201L17.9061 22.7127C17.6885 22.9292 17.396 23.0412 17.1109 23.0412C16.8258 23.0412 16.5332 22.9292 16.3157 22.7127L12.7523 19.1664C12.3097 18.7259 12.3097 18.0166 12.7523 17.5836C13.1949 17.1431 13.9076 17.1431 14.3427 17.5836L17.1109 20.3385L23.4425 14.0373C23.8851 13.5969 24.5978 13.5969 25.0329 14.0373C25.4755 14.4704 25.4755 15.1796 25.0329 15.6201Z" fill="#636EDF"></path></svg>