<svg xmlns="http://www.w3.org/2000/svg" width="48" height="48" viewBox="0 0 48 48" fill="none"><path d="M17.4205 10.128H30.58C31.6405 10.128 32.3665 9.057 31.9735 8.0715L30.3265 3.9435C30.097 3.3735 29.545 3 28.9315 3H19.0675C18.454 3 17.902 3.3735 17.674 3.9435L16.027 8.0715C15.634 9.057 16.3585 10.128 17.4205 10.128Z" fill="#636EDF"></path><path d="M37.05 6.57031H34.281L34.482 7.07281C34.998 8.36731 34.8405 9.83131 34.0574 10.9848C33.2759 12.1398 31.9754 12.8283 30.5804 12.8283H17.4225C16.0275 12.8283 14.7285 12.1398 13.9455 10.9848C13.1625 9.82981 13.005 8.36731 13.521 7.07281L13.719 6.57031H10.95C8.45995 6.57031 6.44995 8.59531 6.44995 11.0703V40.5003C6.44995 42.9903 8.45995 45.0003 10.95 45.0003H37.05C39.54 45.0003 41.55 42.9903 41.55 40.5003V11.0703C41.55 8.59531 39.54 6.57031 37.05 6.57031ZM16.479 33.7533C16.479 34.4988 15.8745 35.1033 15.129 35.1033C14.3835 35.1033 13.779 34.4988 13.779 33.7533V28.1463C13.779 27.4008 14.3835 26.7963 15.129 26.7963C15.8745 26.7963 16.479 27.4008 16.479 28.1463V33.7533ZM22.3935 33.7533C22.3935 34.4988 21.789 35.1033 21.0435 35.1033C20.298 35.1033 19.6935 34.4988 19.6935 33.7533V21.3753C19.6935 20.6298 20.298 20.0253 21.0435 20.0253C21.789 20.0253 22.3935 20.6298 22.3935 21.3753V33.7533ZM28.3065 33.7533C28.3065 34.4988 27.702 35.1033 26.9565 35.1033C26.211 35.1033 25.6064 34.4988 25.6064 33.7533V28.1463C25.6064 27.4008 26.211 26.7963 26.9565 26.7963C27.702 26.7963 28.3065 27.4008 28.3065 28.1463V33.7533ZM34.221 33.7533C34.221 34.4988 33.6164 35.1033 32.8709 35.1033C32.1254 35.1033 31.521 34.4988 31.521 33.7533V21.3753C31.521 20.6298 32.1254 20.0253 32.8709 20.0253C33.6164 20.0253 34.221 20.6298 34.221 21.3753V33.7533Z" fill="#636EDF"></path></svg>