<svg xmlns="http://www.w3.org/2000/svg" width="36" height="36" viewBox="0 0 36 36" fill="none"><path fill-rule="evenodd" clip-rule="evenodd" d="M24.3677 18.1794C25.0116 18.4415 25.7271 18.5902 26.4712 18.5902C29.4762 18.5902 31.9088 16.2244 31.9088 13.306C31.9088 10.3876 29.4762 8.02175 26.4712 8.02175C26.3853 8.02175 26.2923 8.02175 26.2064 8.02884C26.7502 9.18343 27.0579 10.4655 27.0579 11.8185C27.0579 14.3047 26.0276 16.5573 24.3677 18.1794Z" fill="#636EDF"></path><path fill-rule="evenodd" clip-rule="evenodd" d="M33.0964 21.0907C31.6011 20.5736 30.0628 20.2336 28.5031 20.0777C30.1272 21.2394 31.136 23.1236 31.136 25.1778V26.9487C31.136 27.4657 31.0716 27.9616 30.9572 28.4362C31.043 28.4503 31.1289 28.4574 31.2147 28.4716L31.6512 28.5353C33.5543 28.7974 35.25 27.3666 35.25 25.4965V24.0728C35.25 22.7269 34.3843 21.5369 33.0964 21.0907Z" fill="#636EDF"></path><path fill-rule="evenodd" clip-rule="evenodd" d="M9.52883 18.5902C10.2729 18.5902 10.9884 18.4415 11.6323 18.1794C9.97242 16.5573 8.94214 14.3047 8.94214 11.8185C8.94214 10.4655 9.24979 9.17635 9.79355 8.02884C9.70769 8.02175 9.61468 8.02175 9.52883 8.02175C6.52385 8.02175 4.09125 10.3876 4.09125 13.306C4.09125 16.2244 6.52385 18.5902 9.52883 18.5902Z" fill="#636EDF"></path><path fill-rule="evenodd" clip-rule="evenodd" d="M7.49689 20.0777C5.93716 20.2336 4.3989 20.5736 2.90357 21.0907C1.61572 21.5369 0.75 22.7269 0.75 24.0657V25.4895C0.75 27.3595 2.45282 28.7903 4.34882 28.5283L4.78525 28.4645C4.87111 28.4503 4.95697 28.4433 5.04282 28.4291C4.92835 27.9545 4.86396 27.4587 4.86396 26.9416V25.1707C4.86396 23.1236 5.87277 21.2394 7.49689 20.0777Z" fill="#636EDF"></path><path fill-rule="evenodd" clip-rule="evenodd" d="M26.1134 21.4802C20.8905 19.6315 15.1882 19.6315 9.96526 21.4802C8.39123 22.0398 7.33949 23.5132 7.33949 25.1707V26.9416C7.33949 29.2578 9.41435 31.0429 11.7325 30.7099L12.2619 30.632C16.0968 30.0866 19.989 30.0866 23.8239 30.632L24.3534 30.7099C26.6715 31.0358 28.7464 29.2578 28.7464 26.9416V25.1707C28.7392 23.5132 27.6875 22.0398 26.1134 21.4802Z" fill="#636EDF"></path><path d="M19.9589 18.1028C23.4647 17.0518 25.4462 13.3861 24.3847 9.91522C23.3232 6.44432 19.6206 4.48256 16.1148 5.53351C12.6089 6.58447 10.6274 10.2502 11.689 13.7211C12.7505 17.192 16.4531 19.1537 19.9589 18.1028Z" fill="#636EDF"></path></svg>